<svg width="48" height="48" viewBox="0 0 48 48" fill="none" xmlns="http://www.w3.org/2000/svg">
<path d="M10.4903 23.5102L41.5097 23.5102C41.7804 23.5102 42 23.7298 42 24.0005C42 24.2711 41.7804 24.4907 41.5097 24.4907L10.4903 24.4907C10.2196 24.4907 10 24.2711 10 24.0005C10 23.7298 10.2196 23.5102 10.4903 23.5102Z" fill="#EA40F7"/>
<path d="M22.7834 11.218C22.9089 11.218 23.0344 11.2661 23.1305 11.3612C23.3217 11.5524 23.3217 11.8632 23.1305 12.0544L11.1836 24.0014L23.1305 35.9444C23.3217 36.1356 23.3217 36.4464 23.1305 36.6376C22.9393 36.8288 22.6285 36.8288 22.4373 36.6376L10.1442 24.3485C10.052 24.2563 10.0011 24.1318 10.0011 24.0014C10.0011 23.8709 10.053 23.7464 10.1442 23.6542L22.4373 11.3622C22.5324 11.2661 22.6579 11.218 22.7834 11.218Z" fill="#EA40F7"/>
</svg>
