<svg width="129" height="159" viewBox="0 0 129 159" fill="none" xmlns="http://www.w3.org/2000/svg">
<g opacity="0.8" filter="url(#filter0_d)">
<path d="M84.3518 139.465C84.1824 138.04 83.9142 136.63 83.5471 135.233C83.2224 134.005 82.8272 132.792 82.446 131.579C81.9237 129.928 81.3731 128.292 80.8508 126.655C80.5967 125.879 80.3426 125.104 80.0885 124.328C79.9756 123.961 79.8485 123.594 79.7356 123.227C79.5662 122.719 79.425 122.169 78.9874 121.831C79.4674 120.575 79.7074 119.263 79.8909 117.923C80.0885 116.441 80.1591 114.96 80.2014 113.479C80.2438 112.209 80.2014 110.925 80.1732 109.656C80.1309 108.344 80.0603 107.032 79.9332 105.72C79.7921 104.323 79.6085 102.94 79.3968 101.558C79.3121 100.965 79.2133 100.373 79.1003 99.7662C79.1144 99.5546 79.1003 99.343 79.0297 99.1455C78.9733 98.9903 78.9309 98.821 78.8745 98.6658C78.8745 98.6517 78.8745 98.6517 78.8745 98.6376C79.0015 98.3837 79.058 98.1015 79.058 97.8053C79.058 97.0011 78.9309 96.2252 78.818 95.4352C78.7051 94.5605 78.5498 93.7 78.3521 92.8394C78.2251 92.3033 78.0839 91.7813 77.9569 91.2452C77.9428 91.1183 77.9286 91.0054 77.9145 90.8784C77.8439 90.2436 77.7875 89.6087 77.6887 88.988C77.5757 88.2262 77.4345 87.4503 77.2934 86.6885C76.8275 84.1914 76.3193 81.7085 75.5288 79.2961C75.1335 78.0828 74.7382 76.8695 74.3289 75.6563C73.9053 74.4148 73.4395 73.2015 73.0019 71.9742C72.1125 69.5195 71.0961 67.107 69.9385 64.7652C68.7668 62.381 67.4116 60.1238 65.7741 58.0358C64.1083 55.9197 62.2025 54.001 60.2403 52.1671C58.391 50.4459 56.4993 48.7671 54.5512 47.1588C52.589 45.5506 50.5703 44.0269 48.5092 42.5456C47.3799 41.7415 46.2505 40.9233 45.1071 40.1473C44.0907 39.4561 43.046 38.8212 42.0155 38.1582C40.9426 37.4669 39.8556 36.7897 38.7828 36.0984C37.6958 35.4072 36.637 34.6736 35.5359 33.9964C34.4771 33.3475 33.4325 32.6562 32.3879 31.979C32.3737 31.8379 32.3596 31.6969 32.3173 31.5558C32.0491 30.4413 31.7667 29.3409 31.555 28.2264C31.3573 27.0978 31.1738 25.9692 31.0185 24.8405C30.8632 23.7825 30.6938 22.7385 30.4539 21.6945C30.5103 21.5252 30.5386 21.356 30.5103 21.1867C30.355 19.9734 30.1856 18.7743 30.0727 17.561C30.0162 16.9544 29.9456 16.3619 29.8751 15.7552C29.7762 15.0357 29.6915 14.3021 29.508 13.5826C29.141 12.2142 28.6046 10.8881 27.7152 9.78769C27.4046 9.39268 27.0376 9.02588 26.6564 8.71551C25.9224 8.1512 25.0189 7.71387 24.1295 7.71387C23.7766 7.71387 23.4237 7.7703 23.0849 7.88316C22.252 8.1512 21.5179 8.71551 20.9956 9.40678C20.4592 10.1122 20.1486 10.9445 19.838 11.7769C19.5416 12.581 19.3016 13.4134 19.0898 14.2457C18.6522 15.9245 18.6522 17.6598 18.6946 19.3809C18.6946 19.3809 18.6946 19.3809 18.6946 19.395C18.6381 19.7477 18.5675 20.1004 18.5252 20.4531C18.4405 21.2149 18.4122 21.9908 18.4263 22.7667C17.904 22.414 17.3676 22.0754 16.817 21.7651C16.2524 21.4265 15.6877 21.102 15.123 20.7917C14.4878 20.439 13.796 20.1427 13.1043 19.917C12.4832 19.7054 11.8479 19.5502 11.1985 19.4091C10.1821 19.1975 9.08103 19.0282 8.07873 19.3527C8.0505 19.3668 8.02227 19.3668 8.00815 19.3809C7.627 19.5079 7.35878 19.7195 7.06232 19.9875C6.83646 20.185 6.75175 20.312 6.58235 20.58C6.38472 20.8904 6.25767 21.2572 6.17297 21.6099C6.08827 21.9485 6.07415 22.3435 6.08827 22.6962C6.10238 23.063 6.14473 23.4298 6.22943 23.7825C6.42707 24.6854 6.93527 25.5318 7.51406 26.2513C8.16343 27.0696 8.95397 27.8032 9.75863 28.4521C9.94215 28.5932 10.1257 28.706 10.3374 28.7766C10.3657 28.9035 10.3939 29.0305 10.4221 29.1434C10.4927 29.4396 10.6198 29.7077 10.7468 29.9898C10.9303 30.3848 11.128 30.7658 11.3538 31.1467C11.6926 31.6969 12.0879 32.2188 12.4973 32.7126C12.5679 32.7973 12.6385 32.8819 12.7232 32.9807C12.7937 33.0935 12.8926 33.2064 12.9914 33.291C13.0196 33.3192 13.0478 33.3475 13.0761 33.3757C13.0902 33.4039 13.1184 33.418 13.1467 33.4462C13.2455 33.5591 13.3443 33.6719 13.4431 33.7707C13.6831 34.0387 13.9513 34.2786 14.2195 34.5184C14.6713 34.9416 15.123 35.3648 15.6312 35.7316C16.1253 36.0984 16.6053 36.4511 17.0994 36.8179C17.6217 37.2129 18.1722 37.5797 18.7087 37.9465C18.9769 38.1299 19.2592 38.2992 19.5275 38.4685C19.7251 41.0361 19.9933 43.6319 20.9532 46.0443C21.4756 47.3705 22.1814 48.5978 23.0002 49.7688C23.0849 49.8957 23.1837 50.0086 23.2825 50.1214C23.2684 50.6999 23.2684 51.2924 23.2825 51.8708C23.2966 52.5056 23.3672 53.1405 23.466 53.7612C23.579 54.5089 23.706 55.2566 23.8895 55.9902C24.0448 56.6251 24.2425 57.2458 24.4401 57.8806C24.8213 59.1362 25.2165 60.3918 25.7388 61.6051C26.0353 62.3104 26.3741 63.0017 26.7411 63.6789C27.0517 64.2573 27.4187 64.8075 27.7858 65.3577C28.0681 65.795 28.3928 66.19 28.7175 66.5851C28.6751 66.9236 28.661 67.2622 28.661 67.5867C28.5622 67.5444 28.4775 67.5021 28.3787 67.4738C27.9693 67.3328 27.5881 67.2199 27.1646 67.1494C26.1765 66.9942 25.2165 67.1212 24.2566 67.3469C24.1154 67.3751 23.9884 67.4174 23.8613 67.4597C23.2684 67.6572 22.7037 67.9535 22.1532 68.2357C21.4897 68.5742 20.925 69.068 20.3745 69.5618C20.1627 69.7452 19.9792 69.9709 19.8098 70.1966C19.5133 70.5916 19.2451 71.0008 18.991 71.424C18.6381 72.0306 18.384 72.7078 18.2428 73.3991C18.2428 73.4132 18.2428 73.4414 18.2428 73.4555C17.7911 73.3708 17.3111 73.3285 16.8594 73.3285C16.3653 73.3285 15.8571 73.4555 15.3771 73.5683C15.2642 73.5966 15.1512 73.6248 15.0383 73.6671C14.4736 73.8505 13.9372 74.1609 13.4431 74.4853C13.0761 74.7252 12.7514 75.0214 12.4267 75.3036C12.0456 75.6422 11.7632 76.0936 11.495 76.5168C11.2268 76.926 11.0856 77.4056 10.9444 77.8571C10.775 78.4073 10.6903 79.0139 10.6621 79.5923C10.6198 80.6363 10.8033 81.6802 11.0433 82.6819C11.2127 83.359 11.3962 84.0362 11.6079 84.6993C11.8479 85.4188 12.2008 86.1242 12.5538 86.8013C13.0196 87.7042 13.4996 88.5789 14.0219 89.4394C13.9513 89.6511 13.8949 89.8627 13.909 90.0884C13.8102 91.4709 13.7396 92.8535 13.8243 94.236C13.909 95.5622 14.1066 96.8742 14.3325 98.1862C14.3325 98.2285 14.3466 98.2567 14.3466 98.299C14.3466 98.426 14.3748 98.5389 14.4031 98.6517C14.4313 98.8351 14.4736 99.0185 14.516 99.216C14.5442 99.3571 14.5725 99.4982 14.6007 99.6393C14.6572 99.9638 14.7277 100.288 14.7983 100.613C14.9395 101.304 15.1089 101.981 15.2924 102.658C15.6171 103.9 15.9841 105.127 16.3653 106.355C16.7747 107.652 17.1841 108.964 17.6499 110.248C18.5816 112.858 19.6545 115.426 20.8262 117.951C22.012 120.519 23.3672 123.044 24.9624 125.372C25.753 126.528 26.6 127.629 27.4187 128.757C28.2657 129.9 29.1833 130.972 30.1151 132.045C30.9903 133.046 31.8655 134.076 32.8537 134.979C33.856 135.91 34.8865 136.785 35.9735 137.631C36.9899 138.421 37.964 139.254 38.9804 140.044C39.4886 140.439 40.0109 140.819 40.5191 141.2C40.985 141.539 41.465 141.863 41.9026 142.244C42.0437 142.371 42.1849 142.498 42.312 142.639C42.9472 143.415 43.4978 144.234 44.0483 145.066C44.6695 146.011 45.2906 146.956 45.8835 147.902C46.1658 148.353 46.4623 148.804 46.7305 149.256C47.027 149.75 47.3234 150.243 47.634 150.737C47.9728 151.259 48.4104 151.739 48.8339 152.204C48.9327 152.317 49.0598 152.416 49.1868 152.515C49.2151 152.571 49.2151 152.628 49.2574 152.684C49.4833 153.023 49.8786 153.347 50.3021 153.389C51.6855 153.573 53.069 153.7 54.4524 153.7C55.7511 153.686 57.0499 153.559 58.3345 153.375C59.7744 153.178 61.2002 152.896 62.6119 152.515C63.8965 152.162 65.1529 151.753 66.4235 151.358C67.7363 150.935 69.0351 150.455 70.3197 149.933C71.5478 149.439 72.7337 148.889 73.9477 148.367C75.1476 147.845 76.3617 147.351 77.5334 146.787C78.8039 146.195 80.0885 145.602 81.3026 144.882C82.206 144.361 83.1518 143.81 83.8295 143.006C84.1824 142.597 84.5212 142.103 84.5776 141.553C84.6059 141.299 84.62 141.059 84.62 140.805C84.62 140.65 84.5918 140.481 84.5635 140.326C84.4365 140.058 84.3941 139.761 84.3518 139.465ZM22.0261 25.2356C22.012 25.165 21.9979 25.0945 21.9838 25.0381C21.885 24.3891 21.8003 23.7402 21.772 23.0912C21.7438 22.4705 21.7579 21.8497 21.7861 21.229C21.8567 20.4531 21.9838 19.6913 22.2096 18.9436C22.2943 18.7319 22.3932 18.5344 22.5061 18.351C22.619 18.2241 22.7178 18.083 22.8449 17.9701C23.0567 17.8008 23.2684 17.6598 23.4943 17.5187C23.5931 17.4764 23.6919 17.4481 23.7907 17.4199C23.8472 17.4199 23.8895 17.4199 23.946 17.4199C24.0731 17.434 24.186 17.4622 24.313 17.4905C24.4683 17.561 24.6095 17.6456 24.7648 17.7303C24.906 17.8432 25.033 17.9701 25.1601 18.0971C25.5977 18.6473 25.9929 19.2257 26.3176 19.8605C26.5576 20.4249 26.7694 20.9892 26.967 21.5676C27.1364 22.1037 27.2635 22.6398 27.3764 23.19C27.6305 24.6995 27.8281 26.2231 28.0822 27.7185C28.181 28.2546 28.2799 28.7907 28.3928 29.3268L28.3787 29.3127C27.3482 28.6073 26.3317 27.8878 25.273 27.2247C24.7648 26.9003 24.2425 26.5899 23.7343 26.2513C23.4943 26.082 23.2402 25.9268 22.9861 25.7717C22.7884 25.6447 22.5767 25.5459 22.379 25.4331C22.252 25.3625 22.1391 25.3061 22.0261 25.2356ZM23.6072 11.4806C23.6778 11.396 23.7484 11.3113 23.819 11.2267C23.8895 11.1843 23.9601 11.1279 24.0307 11.0856C24.0589 11.0715 24.0872 11.0715 24.1154 11.0574C24.2283 11.0997 24.3272 11.1561 24.4401 11.2126C24.6377 11.3819 24.8354 11.5511 25.0048 11.7487C25.273 12.1013 25.513 12.4681 25.7247 12.8632C25.9929 13.4839 26.1906 14.1328 26.3459 14.7818C26.1765 14.683 25.9929 14.5843 25.8235 14.4996C25.1459 14.1893 24.3836 14.0482 23.6496 14.0764C23.3672 14.0905 23.099 14.1611 22.8308 14.2175C22.7884 14.2316 22.732 14.2457 22.6896 14.2598C22.6473 14.2739 22.5908 14.288 22.5484 14.3162C22.6614 13.893 22.7884 13.4557 22.9296 13.0466C23.099 12.5105 23.3108 11.9744 23.6072 11.4806ZM9.44806 22.2871C9.4763 22.2588 9.51865 22.2306 9.561 22.2024C9.51865 22.2306 9.49041 22.2588 9.44806 22.2871ZM9.61746 23.3875C9.54688 23.2323 9.50453 23.0771 9.44806 22.9219C9.43395 22.7808 9.41983 22.6539 9.41983 22.5128C9.44806 22.5128 9.4763 22.5128 9.50453 22.5128C10.4221 22.6256 11.3256 22.8373 12.215 23.1194C12.4408 23.2041 12.6526 23.3169 12.8784 23.4157C12.8079 23.4439 12.7373 23.4862 12.6808 23.5144C12.4832 23.6273 12.2997 23.7543 12.1161 23.8953C11.735 24.2057 11.4244 24.5584 11.0715 24.897C11.0291 24.9393 10.9727 24.9816 10.9303 25.0239C10.7186 24.8264 10.5068 24.6289 10.3233 24.4173C10.0551 24.0928 9.8151 23.7543 9.61746 23.3875ZM27.9411 57.9794C27.5599 56.8085 27.1788 55.6375 26.9247 54.4243C26.8541 53.9728 26.7976 53.5214 26.7411 53.0558C27.207 53.0699 27.6728 52.9007 27.9975 52.5197C28.5904 51.8567 28.5481 50.7563 27.8564 50.1638C27.2776 49.6841 26.7553 49.1198 26.247 48.5555C25.5553 47.6667 24.9624 46.7215 24.4401 45.734C24.1719 45.1414 23.9319 44.5348 23.7201 43.9C23.5225 43.2651 23.3672 42.6162 23.2402 41.9672C23.1978 41.671 23.1696 41.3747 23.1272 41.0784C23.1978 41.1631 23.2402 41.2618 23.3108 41.3465C23.7625 41.939 24.2707 42.4892 24.7789 43.0394C25.2024 43.4909 25.6683 43.9 26.12 44.3091C26.6423 44.7746 27.1788 45.2261 27.7293 45.6775C27.814 45.734 27.8987 45.7763 27.9834 45.8186C28.0681 45.9456 28.1528 46.0584 28.2657 46.1431C29.2398 46.8626 30.2139 47.5539 31.2867 48.104C31.7667 48.358 32.289 48.5555 32.7972 48.7389C32.8961 49.2468 33.0231 49.7405 33.2066 50.2343C33.489 50.9397 33.8278 51.6169 34.223 52.2658C34.9006 53.3944 35.6206 54.4948 36.4958 55.4965C37.4134 56.5686 38.4016 57.5844 39.4039 58.586C40.1803 59.3478 40.9426 60.1238 41.7755 60.815C41.5355 61.9719 41.352 63.1569 41.2814 64.3419C41.2532 64.9063 41.225 65.4706 41.2391 66.0349C41.2391 66.6133 41.2956 67.1917 41.3661 67.756C41.4085 68.2074 41.5779 68.6166 41.9308 68.9269C42.2555 69.2091 42.679 69.3643 43.1166 69.3502C43.9919 69.3078 44.7965 68.5178 44.7118 67.6008C44.6553 66.9801 44.5848 66.3593 44.5848 65.7386C44.5848 65.2025 44.5989 64.6523 44.6412 64.1162C44.6836 63.693 44.7542 63.2698 44.8106 62.8606C45.333 63.171 45.8553 63.4814 46.3635 63.8059C46.3917 63.8341 46.4199 63.8482 46.4482 63.8764C47.1258 64.483 48.1987 64.4125 48.8057 63.7353C49.4127 63.0582 49.3421 61.986 48.6645 61.3793C48.5516 61.2806 48.4386 61.2101 48.3116 61.1254C47.154 60.3495 45.9259 59.6723 44.7542 58.9105C44.2742 58.5719 43.7942 58.2051 43.3707 57.8101C42.9049 57.3728 42.439 56.9072 41.9873 56.4558C41.0556 55.5247 40.138 54.5795 39.2486 53.606C38.7545 53.0135 38.2887 52.4069 37.8652 51.772C37.4134 51.0949 36.9758 50.4036 36.5947 49.6841C36.51 49.4725 36.4253 49.2609 36.3547 49.0493C36.8488 48.4991 36.9617 47.6667 36.5382 47.0319C36.1712 46.4817 35.5782 46.2559 34.9995 46.0302C34.5477 45.8609 34.0819 45.6775 33.6301 45.4941C32.8396 45.1697 32.1055 44.7605 31.3997 44.295C31.1032 44.0834 30.8068 43.8718 30.5103 43.646C30.4115 43.5755 30.3127 43.5332 30.1998 43.4767C30.1292 43.378 30.0727 43.2651 29.9739 43.1805C28.7598 42.1929 27.5599 41.1631 26.5153 39.9922C26.3317 39.7664 26.1341 39.5407 25.9506 39.3009C25.6965 38.9764 25.4989 38.6378 25.2871 38.2851C25.273 38.2569 25.2589 38.2287 25.2448 38.2005C25.1742 38.0594 25.1177 37.9324 25.0471 37.7914C24.8777 37.5515 24.666 37.354 24.4119 37.2271C24.1295 37.086 23.819 37.0578 23.4943 37.086C22.6473 36.5076 21.7438 36.0138 20.8827 35.4495C20.7415 35.3507 20.6003 35.252 20.4592 35.1532C20.0921 34.8993 19.7251 34.6454 19.3581 34.3773C18.9063 34.0387 18.4687 33.686 18.0028 33.3616C17.537 33.0371 17.1135 32.6562 16.69 32.2753C16.2947 31.9085 15.9136 31.5417 15.5465 31.1608C15.4901 31.0761 15.4195 31.0056 15.3489 30.9492C15.3348 30.935 15.3348 30.935 15.3206 30.9209C15.2783 30.8786 15.2501 30.8222 15.2077 30.7799C14.6995 30.1309 14.2195 29.482 13.8384 28.7484C13.7113 28.438 13.6125 28.1417 13.5419 27.8173C13.5419 27.7608 13.5278 27.7044 13.5278 27.648V27.6339C13.556 27.5915 13.5702 27.5351 13.5984 27.4928C13.6408 27.4646 13.669 27.4222 13.7113 27.3799C13.8949 27.1542 14.0078 26.9003 14.0643 26.6322C14.0784 26.6181 14.1066 26.5899 14.1207 26.5758C14.276 26.4629 14.4313 26.3642 14.5866 26.2795C14.6713 26.2513 14.7701 26.2231 14.8548 26.1949C15.0807 26.1667 15.3206 26.1526 15.5465 26.1667C16.0688 26.2372 16.577 26.3501 17.0711 26.5052C17.6076 26.7028 18.1299 26.9285 18.6381 27.1824C18.9345 27.3235 19.231 27.4928 19.5133 27.648C19.7957 27.8032 20.0921 27.9442 20.3745 28.1135C20.5439 28.2264 20.7133 28.3533 20.8968 28.4662C21.0662 28.5791 21.2779 28.6637 21.4615 28.7766C21.8567 29.0164 22.2379 29.2986 22.6331 29.5384C23.4096 30.0322 24.2001 30.5118 24.9765 31.0197C25.5694 31.4288 26.1482 31.8379 26.7411 32.2471C27.3764 32.6844 28.0258 33.0935 28.661 33.5309C29.7339 34.2645 30.8068 34.9698 31.8938 35.6752C32.9808 36.3665 34.0819 37.0296 35.1547 37.7349C37.3005 39.1457 39.4604 40.5141 41.6202 41.8967C42.2555 42.3058 42.8908 42.7008 43.5119 43.1241C45.5871 44.5771 47.6481 46.0443 49.6668 47.5821C51.6432 49.0916 53.5489 50.714 55.4123 52.3504C57.7699 54.4243 60.085 56.5686 62.1743 58.9387C63.2613 60.2225 64.2636 61.5768 65.1388 63.0017C65.9576 64.3419 66.7058 65.7386 67.3834 67.1494C68.428 69.3643 69.2892 71.6638 70.1362 73.9634C71.0255 76.3758 71.8867 78.8164 72.6207 81.2852C73.2136 83.2603 73.623 85.2777 74.0042 87.3092C73.9336 87.3938 73.8912 87.4926 73.8348 87.5913C73.5242 87.2387 73.2136 86.886 72.9031 86.5474C71.9572 85.5457 70.9832 84.5582 69.995 83.613C69.515 83.1615 68.9927 82.7524 68.4704 82.3574C67.8634 81.906 67.2422 81.4686 66.607 81.0595C66.0564 80.6927 65.4776 80.3682 64.9129 80.0296C64.3342 79.6911 63.7554 79.3666 63.1483 79.0703C61.9202 78.4637 60.6497 77.9558 59.3933 77.448C58.0663 76.926 56.7252 76.4604 55.37 76.0372C54.0713 75.6281 52.7725 75.1907 51.4738 74.7957C50.0762 74.3866 48.6363 74.1044 47.1823 73.9916C46.4905 73.9351 45.8129 73.9069 45.1212 73.8928C44.4718 73.8787 43.8225 73.921 43.1731 73.9775C42.4672 74.0339 41.7755 74.175 41.0838 74.3019C40.3074 74.443 39.531 74.6123 38.7545 74.7957C37.8934 75.0073 37.0605 75.2613 36.2135 75.5293C35.7194 74.8804 35.2394 74.2314 34.7454 73.5683C34.3783 73.0746 34.0113 72.5667 33.6301 72.087C33.4748 71.8049 33.3054 71.5368 33.1502 71.2547C32.5714 69.9709 32.2467 68.6025 31.9643 67.2199C31.9643 67.2058 31.9502 67.1917 31.9502 67.1776C31.9785 67.1353 32.0208 67.107 32.049 67.0506C32.2608 66.6415 32.2749 66.2183 32.1479 65.7809C32.0208 65.3295 31.6538 64.9909 31.3291 64.6523C30.9479 64.1868 30.6091 63.7071 30.2986 63.2133C29.8892 62.5785 29.508 61.9436 29.1692 61.2806C28.9434 60.815 28.7457 60.3354 28.5481 59.8557C28.3363 59.2209 28.1387 58.6001 27.9411 57.9794ZM46.2223 63.7071C46.3352 63.7776 46.4482 63.8623 46.547 63.9328C46.5047 63.9046 46.4482 63.8623 46.4058 63.8341C46.3352 63.7917 46.2788 63.7494 46.2223 63.7071ZM42.1426 101.121C41.959 101.036 41.7896 100.937 41.6202 100.824C41.0556 100.429 40.5191 100.006 40.0109 99.5546C39.7568 99.3289 39.5027 99.1032 39.2627 98.8633C39.051 98.6658 38.8392 98.4683 38.6416 98.2567C38.5851 98.1721 38.5287 98.0874 38.4722 98.0028C38.4722 97.9887 38.4863 97.9746 38.4863 97.9605C38.6275 97.7771 38.7828 97.5937 38.9522 97.4244C39.2204 97.2128 39.5168 97.0294 39.8133 96.8601C40.3638 96.6202 40.9285 96.4227 41.5073 96.2675C41.832 96.7895 42.1284 97.3256 42.4108 97.8617C42.6508 98.4542 42.8202 99.0891 42.9613 99.7098C43.0178 100.147 43.0602 100.584 43.046 101.022C43.0319 101.106 43.0178 101.177 43.0037 101.262C42.9754 101.262 42.9472 101.262 42.919 101.262C42.6649 101.248 42.3967 101.191 42.1426 101.121ZM39.6157 91.7672C39.6298 91.7813 39.6298 91.7954 39.6298 91.8095C39.8556 92.2469 40.1239 92.6701 40.3638 93.1074C40.1803 93.1498 39.9968 93.2062 39.8133 93.2767C39.1498 93.5024 38.5004 93.7987 37.8793 94.1232C37.6252 94.2643 37.3711 94.4194 37.1452 94.6028C36.9193 94.7862 36.6794 94.9837 36.4676 95.1813C36.27 94.9696 36.0723 94.7721 35.8747 94.5605C35.2112 93.8692 34.5195 93.1921 33.8842 92.4726C33.2066 91.6967 32.5149 90.9349 31.8373 90.173C32.9949 90.4834 34.1383 90.8079 35.2959 91.0618C36.7358 91.3863 38.1757 91.5979 39.6157 91.7672ZM30.4821 100.683C30.595 100.74 30.7221 100.796 30.835 100.867C30.9762 100.979 31.1032 101.106 31.2303 101.248C31.3856 101.445 31.5408 101.657 31.6679 101.882C31.9079 102.418 32.1196 102.955 32.2467 103.519C32.3879 104.126 32.5431 104.732 32.6702 105.339C32.7549 105.833 32.8396 106.326 32.8396 106.834C32.8396 106.876 32.8255 106.905 32.8114 106.947C32.7972 106.975 32.769 106.989 32.7408 107.018C32.6843 107.06 32.6278 107.088 32.5714 107.13C32.529 107.145 32.5008 107.159 32.4584 107.173C32.4161 107.187 32.3879 107.201 32.3455 107.201C32.1761 107.215 32.0208 107.229 31.8514 107.229C31.6679 107.201 31.4985 107.159 31.315 107.102C30.9197 106.947 30.5386 106.764 30.1715 106.552C29.7762 106.27 29.4092 105.974 29.0845 105.621C28.6893 105.127 28.3081 104.633 27.9269 104.125C27.5599 103.632 27.207 103.138 26.9247 102.588C26.84 102.418 26.7694 102.235 26.6988 102.052C26.7976 101.939 26.9105 101.812 27.0094 101.713C27.207 101.572 27.4046 101.459 27.6164 101.346C28.2516 101.064 28.9151 100.838 29.6068 100.683C29.8045 100.655 30.0162 100.641 30.2139 100.641C30.2986 100.641 30.3833 100.655 30.4821 100.683ZM31.0609 83.881C30.5244 84.3184 29.9456 84.7134 29.3245 85.0379C28.9151 85.2072 28.4916 85.32 28.0681 85.4188C27.1929 85.5457 26.3176 85.5598 25.4283 85.5034C25.0471 85.4611 24.6518 85.4188 24.2707 85.3482C23.8613 85.2777 23.4519 85.1789 23.0425 85.0661C23.3813 84.8686 23.7201 84.6711 24.0589 84.4736C24.7083 84.0927 25.3577 83.6976 26.0212 83.3308C26.6706 82.9781 27.334 82.6255 27.9975 82.301C28.9998 81.8354 30.0162 81.4122 31.0468 80.9749C31.9643 80.594 32.8678 80.213 33.7995 79.8604C33.7854 79.9027 33.7713 79.9591 33.7572 80.0014C33.489 80.6927 33.1643 81.3417 32.769 81.9624C32.2467 82.6678 31.682 83.2885 31.0609 83.881ZM21.5744 73.6812C21.7438 73.2862 21.9414 72.9053 22.1814 72.5385C22.3932 72.2704 22.619 72.0165 22.859 71.7767C23.2684 71.4663 23.6778 71.1983 24.1295 70.9443C24.5813 70.7468 25.0189 70.6057 25.4989 70.4929C25.8094 70.4506 26.1341 70.4364 26.4447 70.4364C26.6706 70.4647 26.8964 70.5211 27.1223 70.5775C27.4329 70.7045 27.7293 70.8597 28.0116 71.029C28.3928 71.3111 28.7457 71.6356 29.0845 71.9601C29.4516 72.3128 29.8186 72.6796 30.1574 73.0605C30.3833 73.3285 30.6091 73.6248 30.835 73.9069C31.075 74.316 31.315 74.7252 31.5832 75.1202C31.9361 75.6704 32.3314 76.2065 32.769 76.7002C32.162 76.926 31.5691 77.1658 30.9762 77.4056C28.7598 78.3226 26.5576 79.2678 24.4542 80.4247C24.426 80.3823 24.3836 80.3541 24.3554 80.3118C24.3836 80.34 24.4119 80.3823 24.4401 80.4106C23.9601 79.8462 23.5084 79.2537 23.099 78.633C22.7037 78.0405 22.2943 77.4621 21.9555 76.8272C21.7579 76.3476 21.5885 75.8538 21.4756 75.3459C21.4332 75.0214 21.4191 74.7111 21.4332 74.3866C21.4615 74.1468 21.5179 73.9069 21.5744 73.6812ZM14.149 78.5342C14.2195 78.3649 14.3042 78.2098 14.3889 78.0546C14.5301 77.8853 14.6713 77.716 14.8266 77.5608C15.123 77.3351 15.4336 77.1376 15.7583 76.9542C15.9983 76.8554 16.2382 76.799 16.4782 76.7285C16.7182 76.7002 16.9582 76.672 17.1982 76.6861C17.4664 76.7285 17.7205 76.7708 17.9887 76.8413C18.1722 76.926 18.3416 77.0106 18.511 77.1235C18.5816 77.3351 18.6381 77.5608 18.7228 77.7583C18.9063 78.1533 19.0757 78.5483 19.3016 78.9293C19.471 79.2255 19.6545 79.5077 19.838 79.7898C20.1768 80.3118 20.5297 80.8197 20.9109 81.3276C21.1085 81.5956 21.3344 81.8495 21.5462 82.1035C21.1227 82.3433 20.6991 82.5972 20.2756 82.8371C19.7674 83.1333 19.2592 83.4296 18.751 83.7117C18.6522 83.7682 18.5393 83.8246 18.4405 83.881C18.1017 84.0785 17.8617 84.3748 17.664 84.7134C17.537 84.9391 17.4664 85.3341 17.4805 85.5881C17.4946 85.8279 17.6076 86.2793 17.777 86.4768C17.904 86.632 18.017 86.7872 18.1722 86.9142C18.511 87.1822 18.7793 87.2669 19.1745 87.4079C19.7392 87.6055 20.318 87.7465 20.8968 87.9017C21.4756 88.0569 22.0402 88.2544 22.619 88.4096C23.2119 88.5648 23.819 88.6635 24.426 88.7341C24.8071 88.7764 25.2024 88.8187 25.5977 88.8469C25.6118 88.9316 25.6259 89.0162 25.6683 89.1009C26.0494 89.905 26.487 90.6809 26.9105 91.4427C27.334 92.2045 27.7434 92.9664 28.1246 93.7564C28.6893 94.9414 29.2116 96.1265 29.7339 97.3256V97.3397C29.2257 97.382 28.7175 97.4667 28.2234 97.5937C28.0399 97.636 27.8564 97.6924 27.6728 97.7488C27.3058 97.8617 26.9529 98.0169 26.6 98.1721C26.2188 98.3414 25.8377 98.5248 25.4706 98.7364C25.1177 98.948 24.793 99.216 24.5107 99.5123C24.0872 98.9057 23.6778 98.2849 23.2825 97.6642C22.9437 97.114 22.6049 96.5638 22.2661 96.0277C21.9273 95.4775 21.5603 94.9555 21.2074 94.4053C20.8262 93.8269 20.4733 93.2203 20.0921 92.6419C19.7392 92.0917 19.3298 91.5697 18.9628 91.0336C18.2287 89.9755 17.4946 88.9034 16.8311 87.803C16.21 86.7731 15.6453 85.7009 15.0948 84.6146C14.8548 84.0503 14.643 83.5001 14.4736 82.9076C14.3042 82.3433 14.1772 81.779 14.0501 81.2147C13.9654 80.6786 13.909 80.1566 13.9231 79.6064C13.9654 79.2396 14.036 78.8869 14.149 78.5342ZM81.0343 141.045C80.4979 141.468 79.8909 141.821 79.298 142.16C78.5921 142.583 77.8581 142.936 77.124 143.302C76.0229 143.824 74.9076 144.318 73.7783 144.798C72.5643 145.32 71.3643 145.884 70.1362 146.392C68.8515 146.928 67.5528 147.436 66.2399 147.887C64.9694 148.325 63.6848 148.706 62.4002 149.101C61.3838 149.411 60.3532 149.665 59.3086 149.862C57.0075 150.257 54.6642 150.483 52.3349 150.314C52.0667 150.286 51.7985 150.257 51.5161 150.215C51.3044 150.046 51.1067 149.877 50.9232 149.679C50.6126 149.312 50.3303 148.917 50.0762 148.508C49.7515 147.986 49.4409 147.464 49.1163 146.942C48.481 145.926 47.8316 144.925 47.1823 143.923C46.5188 142.893 45.8553 141.863 45.093 140.918C44.6412 140.368 44.1754 139.86 43.6107 139.423C43.1307 139.07 42.6649 138.717 42.1849 138.365C41.2956 137.702 40.4344 137.039 39.5733 136.333C38.6981 135.628 37.8228 134.937 36.9476 134.217C36.0865 133.512 35.2536 132.75 34.463 131.974C33.7148 131.24 33.0231 130.436 32.3314 129.632C31.5832 128.772 30.8632 127.897 30.1715 126.98C29.4516 126.021 28.7316 125.047 28.0258 124.074C27.3199 123.1 26.6706 122.056 26.0776 121.026C25.4565 119.94 24.8495 118.854 24.2848 117.739C23.1837 115.412 22.1391 113.042 21.2356 110.615C20.2898 108.076 19.4428 105.48 18.7087 102.856C18.2852 101.346 17.9181 99.8227 17.6217 98.2708C17.6217 98.2285 17.6076 98.2003 17.6076 98.1721C17.6076 98.1015 17.5935 98.0169 17.5793 97.9464C17.5652 97.8617 17.5511 97.763 17.5229 97.6783C17.3252 96.5215 17.1699 95.3647 17.0852 94.1937C17.7064 95.1107 18.2852 96.0418 18.8922 96.9588C19.4569 97.8053 19.9933 98.6799 20.5297 99.5546C20.5439 99.5828 20.558 99.597 20.5721 99.6252C20.6568 99.738 20.7415 99.8509 20.8121 99.9637C20.8968 100.077 20.9674 100.189 21.0521 100.302C21.1227 100.401 21.1932 100.514 21.2638 100.613C21.4191 100.838 21.5885 101.064 21.7438 101.29C21.8991 101.501 22.0544 101.699 22.2096 101.911C22.2238 101.939 22.252 101.967 22.2661 101.995C22.3085 102.052 22.3508 102.094 22.3932 102.15C22.4496 102.221 22.5061 102.292 22.5767 102.362C22.6331 102.418 22.6755 102.475 22.7178 102.531C22.8167 102.644 22.9296 102.757 23.0284 102.87C23.0567 102.912 23.0849 102.94 23.1272 102.983C23.1414 103.011 23.1696 103.025 23.1837 103.053C23.2402 103.11 23.2825 103.18 23.339 103.251C23.3813 103.307 23.4378 103.378 23.4802 103.434C23.5084 103.477 23.5366 103.519 23.5649 103.561C23.5931 103.604 23.6213 103.646 23.6496 103.688C23.6637 103.702 23.6637 103.716 23.6637 103.73C23.6637 103.745 23.6637 103.759 23.6778 103.773C23.6778 103.787 23.6778 103.787 23.6778 103.801C23.7201 103.829 23.7625 103.857 23.8048 103.872C24.1154 104.521 24.4966 105.141 24.9201 105.734C25.2589 106.199 25.6259 106.665 25.9788 107.116C26.3882 107.652 26.8258 108.174 27.3482 108.612C27.9128 109.077 28.5199 109.515 29.1833 109.825C29.8186 110.121 30.4821 110.403 31.1738 110.502C31.5408 110.559 31.922 110.573 32.3032 110.544C32.4302 110.53 32.5573 110.516 32.6843 110.488C32.9243 110.446 33.1502 110.403 33.3901 110.347C33.7148 110.262 34.0113 110.079 34.3077 109.938C34.5618 109.811 34.8724 109.529 35.0559 109.345C35.3524 109.049 35.6206 108.682 35.79 108.287C36.03 107.681 36.1006 107.06 36.0865 106.411C36.0723 106.129 36.03 105.833 35.9876 105.55C35.9171 105.113 35.8465 104.662 35.7477 104.224C35.6206 103.618 35.4653 103.011 35.3241 102.404C35.2112 101.925 35.0277 101.473 34.8301 101.022C34.8301 101.008 34.8301 100.979 34.8442 100.965C34.8159 100.895 34.7877 100.824 34.7595 100.768C34.7171 100.669 34.6748 100.57 34.6324 100.472C34.576 100.345 34.5195 100.218 34.4771 100.091C34.3783 99.8368 34.2654 99.5828 34.1666 99.3289C34.1242 99.216 34.0819 99.1173 34.0395 99.0044C34.0395 98.9903 34.0254 98.9903 34.0254 98.9762C34.0113 98.948 33.9972 98.9057 33.9831 98.8775C33.8984 98.7082 33.7995 98.5389 33.7148 98.3696C33.4043 97.6783 33.1078 96.9729 32.8114 96.2816C33.1784 96.6485 33.5454 97.0294 33.8984 97.3962C34.1525 97.6642 34.4066 97.9322 34.6465 98.1862C34.6889 98.3555 34.7454 98.5248 34.8442 98.6941C35.0418 99.0185 35.2394 99.343 35.4512 99.6534C35.6912 100.02 35.9594 100.331 36.2417 100.669C36.4394 100.895 36.6652 101.092 36.8629 101.29C37.0746 101.487 37.2864 101.699 37.4981 101.896C37.9781 102.32 38.4722 102.729 38.9945 103.11C39.3192 103.35 39.6439 103.575 39.9686 103.787C40.4203 104.083 40.9144 104.295 41.4367 104.436C41.7191 104.506 42.0014 104.549 42.2837 104.591C43.1025 104.69 43.9636 104.69 44.6836 104.224C44.9377 104.055 45.1494 103.857 45.3753 103.66C45.5871 103.462 45.7282 103.18 45.8835 102.94C45.9823 102.771 46.0811 102.461 46.1235 102.306C46.1658 102.179 46.1941 102.052 46.2223 101.925C46.3211 101.445 46.3352 100.909 46.307 100.429C46.2647 99.6816 46.1235 98.948 45.94 98.2144C45.8694 97.9323 45.7847 97.636 45.6859 97.3679C45.5447 96.9306 45.3471 96.5356 45.1353 96.1265C44.7824 95.4211 44.373 94.7439 43.9495 94.0809C43.9495 93.4883 43.8083 92.8817 43.5684 92.3456C43.5401 92.261 43.4837 92.1904 43.4554 92.1199C44.2601 92.1481 45.0647 92.1763 45.8694 92.2045C46.4764 92.2187 47.0693 92.2469 47.6763 92.261C47.8881 93.1357 48.0998 94.0244 48.3681 94.885C48.5516 95.4916 48.7492 96.0983 48.9892 96.6908C49.2857 97.4244 49.6103 98.1297 49.9633 98.8351C50.5703 100.048 51.2338 101.248 51.982 102.39C52.3349 102.94 52.7584 103.448 53.1819 103.942C53.6901 104.535 54.2124 105.127 54.7347 105.706C55.61 106.665 56.5417 107.554 57.5016 108.428C58.1651 109.049 59.2662 108.964 59.8591 108.287C60.4662 107.596 60.3956 106.552 59.718 105.931C58.4616 104.789 57.2758 103.575 56.1605 102.306C55.8217 101.896 55.4829 101.501 55.1724 101.078C54.8336 100.641 54.5371 100.175 54.2548 99.7098C53.6901 98.7928 53.1819 97.8194 52.6878 96.846C52.222 95.8302 51.8408 94.7862 51.502 93.7C51.4173 93.4319 51.3467 93.1639 51.2761 92.9099C51.262 92.8958 51.262 92.8817 51.2479 92.8535C51.0503 92.402 50.8809 91.9506 50.7115 91.4851C50.6268 91.2452 50.5421 91.0195 50.4432 90.7938C50.3444 90.6104 50.2315 90.4411 50.1044 90.2859C50.1044 90.2718 50.0903 90.2718 50.0903 90.2577C49.9068 90.0461 49.7233 89.8345 49.4974 89.6652C49.2857 89.5382 49.0739 89.4536 48.848 89.3689C48.5939 89.2843 48.3398 89.2419 48.0716 89.1996C47.9587 89.1855 47.8457 89.1573 47.7328 89.1432C47.6481 89.1291 47.5775 89.115 47.4928 89.1009C47.267 89.1009 47.0552 89.115 46.8293 89.115C46.5329 89.115 46.2505 89.0585 45.9682 89.0303C45.7 89.0162 45.4459 89.0303 45.1777 89.0303C44.8248 89.0162 44.4859 89.0021 44.1471 88.9598C44.1048 88.9598 44.0483 88.9598 44.006 88.9457C43.8083 88.9316 43.6107 88.9316 43.399 88.9316C43.1025 88.9316 42.806 88.9175 42.5096 88.9034C42.1849 88.8892 41.8602 88.8751 41.5355 88.8469C41.2532 88.8328 40.9709 88.7905 40.7026 88.7482C40.4909 88.7341 40.2791 88.72 40.0815 88.6917C39.8839 88.6635 39.7004 88.6212 39.5168 88.593C39.1074 88.5225 38.6839 88.4801 38.2746 88.4237C37.8793 88.3673 37.484 88.2826 37.0887 88.198C36.8205 88.1415 36.5523 88.0428 36.2982 87.944C36.1288 87.8876 35.9594 87.8453 35.79 87.7888C35.3806 87.7042 34.9853 87.6055 34.5901 87.4926C33.8842 87.3092 33.1925 87.1258 32.4867 86.9283C33.0231 86.5192 33.5172 86.0818 33.9831 85.6163C34.9571 84.6146 35.7759 83.486 36.3688 82.2304C36.6652 81.5815 36.877 80.9043 37.1029 80.2272C37.1876 79.9591 37.2723 79.6911 37.3287 79.4089C37.3711 79.1409 37.3852 78.8728 37.4134 78.6048C38.7404 78.1957 40.0815 77.843 41.4367 77.5749C42.3684 77.4197 43.286 77.2787 44.2318 77.2363C45.1353 77.194 46.0247 77.2363 46.9282 77.2928C47.7469 77.3915 48.5516 77.5326 49.3562 77.7019C50.2174 77.8853 51.0503 78.1533 51.8831 78.4073C52.6878 78.6612 53.4925 78.9434 54.2971 79.1973C55.0453 79.4371 55.7794 79.677 56.5135 79.9309C58.1087 80.5234 59.6756 81.1583 61.2144 81.8636C62.0049 82.2304 62.7531 82.6678 63.5013 83.091C64.1506 83.4719 64.7859 83.8669 65.4212 84.2902C65.9717 84.6852 66.5081 85.0802 67.0305 85.5034C67.6093 85.969 68.1316 86.4909 68.6398 87.0129C69.5997 87.9864 70.5597 88.9457 71.4632 89.9755C71.9149 90.5116 72.3666 91.0618 72.776 91.6402C73.1572 92.1763 73.4677 92.7406 73.7642 93.3332C73.9901 93.841 74.23 94.3489 74.3853 94.885C74.583 95.5198 74.7524 96.1406 74.9218 96.7754C75.0629 97.2833 75.1617 97.8053 75.2888 98.3132C75.3311 98.5389 75.3735 98.7646 75.4158 98.9903C75.4441 99.1173 75.5005 99.2584 75.5288 99.3853C75.5994 99.6957 75.6841 100.006 75.7405 100.316C76.1782 102.898 76.5311 105.508 76.6722 108.132C76.8134 110.756 76.8416 113.408 76.6581 116.032C76.5875 116.808 76.4887 117.57 76.3476 118.346C76.2205 119.094 76.0652 119.827 75.8252 120.547C75.3876 121.633 74.8653 122.677 74.3571 123.735C74.0748 124.314 73.7924 124.892 73.5383 125.47C73.2701 126.105 73.0301 126.754 72.7901 127.403C72.7478 127.53 72.6913 127.671 72.649 127.798C72.5925 128.094 72.6066 128.377 72.6913 128.673C72.8325 129.096 73.1289 129.449 73.5242 129.646C73.9195 129.844 74.3853 129.886 74.7947 129.745C75.1759 129.618 75.6276 129.308 75.7688 128.913C76.0088 128.264 76.2487 127.615 76.517 126.98C76.6581 126.627 76.8275 126.275 76.9969 125.936C77.0816 126.204 77.1663 126.472 77.251 126.74C77.6463 127.967 78.0416 129.181 78.451 130.408C79.2556 132.877 80.1309 135.332 80.6532 137.885C80.6673 137.984 80.6955 138.083 80.7096 138.195C80.7943 138.689 80.8649 139.169 80.9214 139.663C80.9779 140.072 81.0484 140.495 81.0767 140.904C81.1331 140.946 81.0908 140.989 81.0343 141.045Z" fill="#EA40F7"/>
<path d="M48.1143 60.9985C48.1848 61.0409 48.2413 61.0973 48.3119 61.1396C48.3684 61.1678 48.4248 61.2101 48.4672 61.2384C48.3542 61.1678 48.2413 61.0832 48.1143 60.9985Z" fill="#EA40F7"/>
<path d="M66.4093 131.043C66.0564 130.859 65.6611 130.831 65.28 130.888C65.04 130.916 64.8 130.958 64.56 130.986C64.0377 131.057 63.5154 131.099 62.993 131.142C62.4425 131.184 61.8919 131.24 61.3414 131.269C60.8191 131.297 60.2826 131.311 59.7603 131.353C59.0968 131.395 58.4333 131.48 57.7981 131.664C57.6992 131.692 57.6004 131.72 57.5157 131.748C57.431 131.776 57.3604 131.805 57.2757 131.833C56.7816 132.016 56.3723 132.312 56.0335 132.707C55.8641 132.905 55.7088 133.117 55.5253 133.314C54.89 134.034 54.1983 134.725 53.4783 135.36C52.476 136.15 51.4032 136.841 50.3585 137.561C49.6103 138.068 49.3703 139.098 49.8785 139.874C50.3726 140.622 51.4455 140.862 52.1937 140.354C52.8148 139.931 53.436 139.507 54.0571 139.084C54.7206 138.619 55.3559 138.125 55.9629 137.603C56.4711 137.166 56.9369 136.686 57.4028 136.206C57.6145 135.995 57.8122 135.769 58.0098 135.543C58.1792 135.346 58.3345 135.148 58.5039 134.951C58.7298 134.88 58.9556 134.824 59.1815 134.767C60.2403 134.626 61.3131 134.64 62.386 134.556C62.9507 134.513 63.5154 134.457 64.08 134.4C64.3341 134.372 64.5882 134.344 64.8423 134.316C64.9412 134.302 65.0541 134.288 65.1529 134.273C65.5058 134.4 65.9011 134.415 66.254 134.302C66.6775 134.161 67.0304 133.864 67.2281 133.469C67.4398 133.046 67.4398 132.637 67.3269 132.2C67.214 131.692 66.8469 131.269 66.4093 131.043ZM58.5462 134.894C58.5604 134.894 58.5604 134.894 58.5462 134.894C58.6027 134.866 58.6451 134.838 58.7015 134.824C58.6592 134.852 58.6027 134.88 58.5462 134.894Z" fill="#EA40F7"/>
<path d="M100.261 121.04C100.275 120.998 100.304 120.942 100.318 120.899C100.318 120.914 100.304 120.928 100.304 120.942C100.289 120.97 100.275 121.012 100.261 121.04Z" fill="#EA40F7"/>
<path d="M123.06 22.4424C123.018 22.5412 122.975 22.6399 122.933 22.7387C122.99 22.6258 123.032 22.4988 123.088 22.386C123.074 22.4001 123.06 22.4142 123.06 22.4424Z" fill="#EA40F7"/>
</g>
<g filter="url(#filter1_d)">
<path d="M83.3469 137.294C83.1775 135.869 82.9093 134.458 82.5423 133.062C82.2176 131.834 81.8223 130.621 81.4411 129.408C80.9188 127.757 80.3683 126.121 79.8459 124.484C79.5918 123.708 79.3377 122.932 79.0836 122.157C78.9707 121.79 78.8437 121.423 78.7307 121.056C78.5613 120.548 78.4201 119.998 77.9825 119.659C78.4625 118.404 78.7025 117.092 78.886 115.752C79.0836 114.27 79.1542 112.789 79.1966 111.308C79.2389 110.038 79.1966 108.754 79.1683 107.485C79.126 106.173 79.0554 104.861 78.9284 103.549C78.7872 102.152 78.6037 100.769 78.3919 99.3868C78.3072 98.7943 78.2084 98.2017 78.0955 97.5951C78.1096 97.3835 78.0955 97.1719 78.0249 96.9744C77.9684 96.8192 77.9261 96.6499 77.8696 96.4947C77.8696 96.4806 77.8696 96.4806 77.8696 96.4665C77.9966 96.2126 78.0531 95.9304 78.0531 95.6341C78.0531 94.83 77.9261 94.0541 77.8131 93.2641C77.7002 92.3894 77.5449 91.5288 77.3473 90.6683C77.2202 90.1322 77.079 89.6102 76.952 89.0741C76.9379 88.9471 76.9238 88.8343 76.9097 88.7073C76.8391 88.0724 76.7826 87.4376 76.6838 86.8169C76.5708 86.0551 76.4297 85.2791 76.2885 84.5173C75.8227 82.0203 75.3145 79.5373 74.5239 77.1249C74.1286 75.9117 73.7334 74.6984 73.324 73.4851C72.9005 72.2437 72.4346 71.0304 71.997 69.803C71.1077 67.3483 70.0912 64.9359 68.9337 62.594C67.762 60.2098 66.4067 57.9526 64.7692 55.8647C63.1034 53.7485 61.1977 51.8299 59.2354 49.9959C57.3861 48.2748 55.4945 46.596 53.5464 44.9877C51.5841 43.3794 49.5654 41.8558 47.5044 40.3745C46.375 39.5704 45.2457 38.7521 44.1022 37.9762C43.0858 37.2849 42.0412 36.6501 41.0106 35.987C39.9378 35.2957 38.8508 34.6186 37.7779 33.9273C36.6909 33.236 35.6321 32.5024 34.531 31.8253C33.4723 31.1763 32.4276 30.485 31.383 29.8079C31.3689 29.6668 31.3547 29.5257 31.3124 29.3846C31.0442 28.2701 30.7618 27.1697 30.5501 26.0552C30.3525 24.9266 30.1689 23.798 30.0136 22.6694C29.8584 21.6113 29.689 20.5674 29.449 19.5234C29.5054 19.3541 29.5337 19.1848 29.5054 19.0155C29.3502 17.8023 29.1808 16.6031 29.0678 15.3899C29.0114 14.7832 28.9408 14.1907 28.8702 13.5841C28.7714 12.8646 28.6867 12.131 28.5031 11.4115C28.1361 10.0431 27.5997 8.71694 26.7103 7.61655C26.3997 7.22153 26.0327 6.85474 25.6516 6.54437C24.9175 5.98006 24.014 5.54272 23.1246 5.54272C22.7717 5.54272 22.4188 5.59916 22.08 5.71202C21.2471 5.98006 20.513 6.54437 19.9907 7.23564C19.4543 7.94102 19.1437 8.77338 18.8331 9.60573C18.5367 10.4099 18.2967 11.2422 18.085 12.0746C17.6473 13.7534 17.6473 15.4886 17.6897 17.2097C17.6897 17.2097 17.6897 17.2097 17.6897 17.2239C17.6332 17.5765 17.5626 17.9292 17.5203 18.2819C17.4356 19.0437 17.4073 19.8197 17.4215 20.5956C16.8991 20.2429 16.3627 19.9043 15.8121 19.5939C15.2475 19.2554 14.6828 18.9309 14.1181 18.6205C13.4829 18.2678 12.7912 17.9716 12.0994 17.7458C11.4783 17.5342 10.843 17.379 10.1937 17.238C9.17725 17.0263 8.07614 16.8571 7.07385 17.1815C7.04562 17.1956 7.01738 17.1956 7.00327 17.2097C6.62211 17.3367 6.35389 17.5483 6.05744 17.8164C5.83157 18.0139 5.74687 18.1409 5.57747 18.4089C5.37984 18.7193 5.25278 19.0861 5.16808 19.4388C5.08338 19.7773 5.06927 20.1724 5.08338 20.525C5.0975 20.8918 5.13985 21.2586 5.22455 21.6113C5.42219 22.5142 5.93039 23.3607 6.50918 24.0802C7.15855 24.8984 7.94909 25.632 8.75375 26.281C8.93727 26.422 9.12079 26.5349 9.33254 26.6054C9.36077 26.7324 9.38901 26.8594 9.41724 26.9722C9.48782 27.2685 9.61487 27.5365 9.74193 27.8187C9.92544 28.2137 10.1231 28.5946 10.3489 28.9755C10.6878 29.5257 11.083 30.0477 11.4924 30.5415C11.563 30.6261 11.6336 30.7108 11.7183 30.8095C11.7889 30.9224 11.8877 31.0352 11.9865 31.1199C12.0147 31.1481 12.043 31.1763 12.0712 31.2045C12.0853 31.2327 12.1135 31.2469 12.1418 31.2751C12.2406 31.3879 12.3394 31.5008 12.4382 31.5995C12.6782 31.8676 12.9464 32.1074 13.2147 32.3472C13.6664 32.7705 14.1181 33.1937 14.6263 33.5605C15.1204 33.9273 15.6004 34.28 16.0945 34.6468C16.6168 35.0418 17.1674 35.4086 17.7038 35.7754C17.972 35.9588 18.2544 36.1281 18.5226 36.2974C18.7202 38.865 18.9884 41.4608 19.9484 43.8732C20.4707 45.1993 21.1765 46.4267 21.9953 47.5976C22.08 47.7246 22.1788 47.8374 22.2776 47.9503C22.2635 48.5287 22.2635 49.1212 22.2776 49.6996C22.2918 50.3345 22.3623 50.9693 22.4612 51.5901C22.5741 52.3378 22.7011 53.0855 22.8847 53.8191C23.0399 54.4539 23.2376 55.0747 23.4352 55.7095C23.8164 56.9651 24.2116 58.2207 24.734 59.4339C25.0304 60.1393 25.3692 60.8306 25.7363 61.5077C26.0468 62.0862 26.4139 62.6364 26.7809 63.1866C27.0632 63.6239 27.3879 64.0189 27.7126 64.4139C27.6703 64.7525 27.6561 65.0911 27.6561 65.4156C27.5573 65.3732 27.4726 65.3309 27.3738 65.3027C26.9644 65.1616 26.5833 65.0488 26.1598 64.9782C25.1716 64.823 24.2116 64.95 23.2517 65.1757C23.1105 65.204 22.9835 65.2463 22.8564 65.2886C22.2635 65.4861 21.6989 65.7824 21.1483 66.0645C20.4848 66.4031 19.9201 66.8969 19.3696 67.3906C19.1578 67.574 18.9743 67.7998 18.8049 68.0255C18.5085 68.4205 18.2402 68.8296 17.9861 69.2528C17.6332 69.8595 17.3791 70.5366 17.2379 71.2279C17.2379 71.242 17.2379 71.2702 17.2379 71.2843C16.7862 71.1997 16.3062 71.1574 15.8545 71.1574C15.3604 71.1574 14.8522 71.2843 14.3722 71.3972C14.2593 71.4254 14.1464 71.4536 14.0334 71.496C13.4688 71.6794 12.9323 71.9897 12.4382 72.3142C12.0712 72.554 11.7465 72.8503 11.4218 73.1324C11.0407 73.471 10.7583 73.9225 10.4901 74.3457C10.2219 74.7548 10.0807 75.2345 9.93956 75.6859C9.77016 76.2361 9.68546 76.8428 9.65722 77.4212C9.61487 78.4651 9.79839 79.5091 10.0384 80.5107C10.2078 81.1879 10.3913 81.8651 10.6031 82.5281C10.843 83.2476 11.196 83.953 11.5489 84.6302C12.0147 85.5331 12.4947 86.4077 13.017 87.2683C12.9464 87.4799 12.89 87.6915 12.9041 87.9173C12.8053 89.2998 12.7347 90.6824 12.8194 92.0649C12.9041 93.391 13.1017 94.703 13.3276 96.015C13.3276 96.0574 13.3417 96.0856 13.3417 96.1279C13.3417 96.2549 13.3699 96.3677 13.3982 96.4806C13.4264 96.664 13.4688 96.8474 13.5111 97.0449C13.5393 97.186 13.5676 97.3271 13.5958 97.4681C13.6523 97.7926 13.7229 98.1171 13.7934 98.4416C13.9346 99.1328 14.104 99.81 14.2875 100.487C14.6122 101.729 14.9793 102.956 15.3604 104.183C15.7698 105.481 16.1792 106.793 16.645 108.077C17.5767 110.687 18.6496 113.255 19.8213 115.78C21.0071 118.347 22.3623 120.873 23.9575 123.2C24.7481 124.357 25.5951 125.458 26.4139 126.586C27.2609 127.729 28.1785 128.801 29.1102 129.873C29.9854 130.875 30.8607 131.905 31.8488 132.808C32.8511 133.739 33.8816 134.614 34.9686 135.46C35.9851 136.25 36.9591 137.082 37.9755 137.872C38.4837 138.267 39.006 138.648 39.5143 139.029C39.9801 139.368 40.4601 139.692 40.8977 140.073C41.0389 140.2 41.18 140.327 41.3071 140.468C41.9423 141.244 42.4929 142.062 43.0434 142.895C43.6646 143.84 44.2857 144.785 44.8786 145.73C45.161 146.182 45.4574 146.633 45.7256 147.085C46.0221 147.578 46.3185 148.072 46.6291 148.566C46.9679 149.088 47.4055 149.568 47.829 150.033C47.9279 150.146 48.0549 150.245 48.182 150.344C48.2102 150.4 48.2102 150.456 48.2525 150.513C48.4784 150.851 48.8737 151.176 49.2972 151.218C50.6806 151.402 52.0641 151.529 53.4475 151.529C54.7463 151.515 56.045 151.388 57.3297 151.204C58.7696 151.007 60.1954 150.724 61.607 150.344C62.8917 149.991 64.1481 149.582 65.4186 149.187C66.7314 148.764 68.0302 148.284 69.3148 147.762C70.543 147.268 71.7288 146.718 72.9428 146.196C74.1428 145.674 75.3568 145.18 76.5285 144.616C77.799 144.023 79.0836 143.431 80.2977 142.711C81.2012 142.189 82.147 141.639 82.8246 140.835C83.1775 140.426 83.5163 139.932 83.5728 139.382C83.601 139.128 83.6151 138.888 83.6151 138.634C83.6151 138.479 83.5869 138.31 83.5587 138.155C83.4316 137.887 83.3893 137.59 83.3469 137.294ZM21.0212 23.0644C21.0071 22.9939 20.993 22.9233 20.9789 22.8669C20.8801 22.218 20.7954 21.569 20.7671 20.9201C20.7389 20.2993 20.753 19.6786 20.7813 19.0578C20.8518 18.2819 20.9789 17.5201 21.2048 16.7724C21.2895 16.5608 21.3883 16.3633 21.5012 16.1799C21.6142 16.0529 21.713 15.9118 21.84 15.799C22.0518 15.6297 22.2635 15.4886 22.4894 15.3475C22.5882 15.3052 22.687 15.277 22.7858 15.2488C22.8423 15.2488 22.8847 15.2488 22.9411 15.2488C23.0682 15.2629 23.1811 15.2911 23.3082 15.3193C23.4635 15.3899 23.6046 15.4745 23.7599 15.5592C23.9011 15.672 24.0281 15.799 24.1552 15.926C24.5928 16.4761 24.9881 17.0546 25.3128 17.6894C25.5527 18.2537 25.7645 18.818 25.9621 19.3964C26.1315 19.9325 26.2586 20.4686 26.3715 21.0188C26.6256 22.5283 26.8232 24.052 27.0774 25.5474C27.1762 26.0835 27.275 26.6195 27.3879 27.1556L27.3738 27.1415C26.3433 26.4361 25.3269 25.7167 24.2681 25.0536C23.7599 24.7291 23.2376 24.4188 22.7294 24.0802C22.4894 23.9109 22.2353 23.7557 21.9812 23.6005C21.7836 23.4735 21.5718 23.3748 21.3742 23.2619C21.2471 23.1914 21.1342 23.135 21.0212 23.0644ZM22.6023 9.30947C22.6729 9.22482 22.7435 9.14017 22.8141 9.05553C22.8847 9.01321 22.9552 8.95677 23.0258 8.91445C23.0541 8.90034 23.0823 8.90034 23.1105 8.88624C23.2235 8.92856 23.3223 8.98499 23.4352 9.04142C23.6329 9.21071 23.8305 9.38 23.9999 9.57751C24.2681 9.9302 24.5081 10.297 24.7198 10.692C24.9881 11.3128 25.1857 11.9617 25.341 12.6107C25.1716 12.5119 24.9881 12.4131 24.8187 12.3285C24.1411 12.0181 23.3787 11.8771 22.6447 11.9053C22.3623 11.9194 22.0941 11.9899 21.8259 12.0463C21.7836 12.0605 21.7271 12.0746 21.6847 12.0887C21.6424 12.1028 21.5859 12.1169 21.5436 12.1451C21.6565 11.7219 21.7836 11.2845 21.9247 10.8754C22.0941 10.3393 22.3059 9.80323 22.6023 9.30947ZM8.44318 20.1159C8.47141 20.0877 8.51376 20.0595 8.55611 20.0313C8.51376 20.0595 8.48553 20.0877 8.44318 20.1159ZM8.61258 21.2163C8.542 21.0611 8.49965 20.9059 8.44318 20.7508C8.42906 20.6097 8.41495 20.4827 8.41495 20.3416C8.44318 20.3416 8.47141 20.3416 8.49965 20.3416C9.41724 20.4545 10.3207 20.6661 11.2101 20.9483C11.4359 21.0329 11.6477 21.1458 11.8736 21.2445C11.803 21.2727 11.7324 21.3151 11.6759 21.3433C11.4783 21.4561 11.2948 21.5831 11.1113 21.7242C10.7301 22.0346 10.4195 22.3873 10.0666 22.7258C10.0243 22.7682 9.96779 22.8105 9.92544 22.8528C9.71369 22.6553 9.50194 22.4578 9.31842 22.2462C9.0502 21.9217 8.81022 21.5831 8.61258 21.2163ZM26.9362 55.8083C26.555 54.6373 26.1739 53.4664 25.9198 52.2531C25.8492 51.8017 25.7927 51.3502 25.7363 50.8847C26.2021 50.8988 26.668 50.7295 26.9927 50.3486C27.5856 49.6855 27.5432 48.5851 26.8515 47.9926C26.2727 47.513 25.7504 46.9487 25.2422 46.3844C24.5504 45.4956 23.9575 44.5504 23.4352 43.5628C23.167 42.9703 22.927 42.3637 22.7153 41.7288C22.5176 41.094 22.3623 40.445 22.2353 39.7961C22.1929 39.4998 22.1647 39.2036 22.1224 38.9073C22.1929 38.992 22.2353 39.0907 22.3059 39.1754C22.7576 39.7679 23.2658 40.3181 23.774 40.8683C24.1975 41.3197 24.6634 41.7288 25.1151 42.138C25.6374 42.6035 26.1739 43.055 26.7244 43.5064C26.8091 43.5628 26.8938 43.6051 26.9785 43.6475C27.0632 43.7744 27.1479 43.8873 27.2609 43.9719C28.2349 44.6914 29.209 45.3827 30.2819 45.9329C30.7618 46.1868 31.2842 46.3844 31.7924 46.5678C31.8912 47.0756 32.0182 47.5694 32.2017 48.0632C32.4841 48.7685 32.8229 49.4457 33.2182 50.0947C33.8958 51.2233 34.6157 52.3237 35.491 53.3253C36.4086 54.3975 37.3967 55.4132 38.399 56.4149C39.1754 57.1767 39.9378 57.9526 40.7706 58.6439C40.5307 59.8007 40.3471 60.9858 40.2766 62.1708C40.2483 62.7351 40.2201 63.2994 40.2342 63.8637C40.2342 64.4421 40.2907 65.0206 40.3613 65.5849C40.4036 66.0363 40.573 66.4454 40.9259 66.7558C41.2506 67.0379 41.6741 67.1931 42.1117 67.179C42.987 67.1367 43.7916 66.3467 43.7069 65.4297C43.6505 64.8089 43.5799 64.1882 43.5799 63.5675C43.5799 63.0314 43.594 62.4812 43.6364 61.9451C43.6787 61.5219 43.7493 61.0986 43.8058 60.6895C44.3281 60.9999 44.8504 61.3102 45.3586 61.6347C45.3868 61.6629 45.4151 61.677 45.4433 61.7053C46.1209 62.3119 47.1938 62.2413 47.8008 61.5642C48.4078 60.887 48.3372 59.8148 47.6596 59.2082C47.5467 59.1095 47.4338 59.0389 47.3067 58.9543C46.1491 58.1783 44.921 57.5012 43.7493 56.7394C43.2693 56.4008 42.7893 56.034 42.3658 55.639C41.9 55.2016 41.4341 54.7361 40.9824 54.2846C40.0507 53.3535 39.1331 52.4083 38.2437 51.4349C37.7496 50.8424 37.2838 50.2357 36.8603 49.6009C36.4086 48.9237 35.9709 48.2325 35.5898 47.513C35.5051 47.3014 35.4204 47.0897 35.3498 46.8781C35.8439 46.3279 35.9568 45.4956 35.5333 44.8607C35.1663 44.3105 34.5734 44.0848 33.9946 43.8591C33.5428 43.6898 33.077 43.5064 32.6253 43.323C31.8347 42.9985 31.1006 42.5894 30.3948 42.1238C30.0983 41.9122 29.8019 41.7006 29.5054 41.4749C29.4066 41.4044 29.3078 41.362 29.1949 41.3056C29.1243 41.2069 29.0678 41.094 28.969 41.0093C27.755 40.0218 26.555 38.9919 25.5104 37.821C25.3269 37.5953 25.1292 37.3696 24.9457 37.1297C24.6916 36.8053 24.494 36.4667 24.2822 36.114C24.2681 36.0858 24.254 36.0576 24.2399 36.0293C24.1693 35.8883 24.1128 35.7613 24.0422 35.6202C23.8728 35.3804 23.6611 35.1829 23.407 35.0559C23.1246 34.9148 22.8141 34.8866 22.4894 34.9148C21.6424 34.3364 20.7389 33.8427 19.8778 33.2784C19.7366 33.1796 19.5955 33.0808 19.4543 32.9821C19.0872 32.7282 18.7202 32.4742 18.3532 32.2062C17.9014 31.8676 17.4638 31.5149 16.998 31.1904C16.5321 30.8659 16.1086 30.485 15.6851 30.1041C15.2898 29.7373 14.9087 29.3705 14.5416 28.9896C14.4852 28.905 14.4146 28.8344 14.344 28.778C14.3299 28.7639 14.3299 28.7639 14.3158 28.7498C14.2734 28.7075 14.2452 28.651 14.2028 28.6087C13.6946 27.9598 13.2147 27.3108 12.8335 26.5772C12.7065 26.2669 12.6076 25.9706 12.5371 25.6461C12.5371 25.5897 12.5229 25.5333 12.5229 25.4768V25.4627C12.5512 25.4204 12.5653 25.364 12.5935 25.3216C12.6359 25.2934 12.6641 25.2511 12.7065 25.2088C12.89 24.9831 13.0029 24.7291 13.0594 24.4611C13.0735 24.447 13.1017 24.4188 13.1158 24.4046C13.2711 24.2918 13.4264 24.193 13.5817 24.1084C13.6664 24.0802 13.7652 24.052 13.8499 24.0237C14.0758 23.9955 14.3158 23.9814 14.5416 23.9955C15.064 24.0661 15.5722 24.1789 16.0663 24.3341C16.6027 24.5316 17.125 24.7573 17.6332 25.0113C17.9297 25.1524 18.2261 25.3216 18.5085 25.4768C18.7908 25.632 19.0872 25.7731 19.3696 25.9424C19.539 26.0552 19.7084 26.1822 19.8919 26.2951C20.0613 26.4079 20.2731 26.4926 20.4566 26.6054C20.8518 26.8453 21.233 27.1274 21.6283 27.3673C22.4047 27.861 23.1952 28.3407 23.9717 28.8486C24.5646 29.2577 25.1434 29.6668 25.7363 30.0759C26.3715 30.5133 27.0209 30.9224 27.6561 31.3597C28.729 32.0933 29.8019 32.7987 30.8889 33.5041C31.9759 34.1954 33.077 34.8584 34.1499 35.5638C36.2956 36.9746 38.4555 38.343 40.6154 39.7255C41.2506 40.1347 41.8859 40.5297 42.507 40.9529C44.5822 42.406 46.6432 43.8732 48.6619 45.4109C50.6383 46.9204 52.5441 48.5428 54.4075 50.1793C56.765 52.2531 59.0801 54.3975 61.1694 56.7676C62.2564 58.0514 63.2587 59.4057 64.1339 60.8306C64.9527 62.1708 65.7009 63.5675 66.3785 64.9782C67.4232 67.1931 68.2843 69.4927 69.1313 71.7922C70.0207 74.2046 70.8818 76.6453 71.6159 79.1141C72.2088 81.0892 72.6181 83.1066 72.9993 85.1381C72.9287 85.2227 72.8864 85.3214 72.8299 85.4202C72.5193 85.0675 72.2088 84.7148 71.8982 84.3762C70.9524 83.3746 69.9783 82.3871 68.9901 81.4418C68.5102 80.9904 67.9878 80.5813 67.4655 80.1863C66.8585 79.7348 66.2374 79.2975 65.6021 78.8884C65.0515 78.5216 64.4727 78.1971 63.9081 77.8585C63.3293 77.5199 62.7505 77.1955 62.1435 76.8992C60.9153 76.2926 59.6448 75.7847 58.3884 75.2768C57.0614 74.7548 55.7203 74.2893 54.3651 73.8661C53.0664 73.4569 51.7676 73.0196 50.4689 72.6246C49.0713 72.2155 47.6314 71.9333 46.1774 71.8204C45.4857 71.764 44.808 71.7358 44.1163 71.7217C43.467 71.7076 42.8176 71.7499 42.1682 71.8063C41.4624 71.8628 40.7706 72.0038 40.0789 72.1308C39.3025 72.2719 38.5261 72.4412 37.7496 72.6246C36.8885 72.8362 36.0556 73.0901 35.2086 73.3582C34.7145 72.7092 34.2346 72.0603 33.7405 71.3972C33.3734 70.9034 33.0064 70.3956 32.6253 69.9159C32.47 69.6338 32.3006 69.3657 32.1453 69.0836C31.5665 67.7998 31.2418 66.4313 30.9595 65.0488C30.9595 65.0347 30.9454 65.0206 30.9454 65.0064C30.9736 64.9641 31.0159 64.9359 31.0442 64.8795C31.2559 64.4704 31.27 64.0471 31.143 63.6098C31.0159 63.1583 30.6489 62.8198 30.3242 62.4812C29.9431 62.0156 29.6043 61.536 29.2937 61.0422C28.8843 60.4074 28.5031 59.7725 28.1643 59.1095C27.9385 58.6439 27.7408 58.1642 27.5432 57.6846C27.3315 57.0497 27.1338 56.429 26.9362 55.8083ZM45.2174 61.536C45.3304 61.6065 45.4433 61.6911 45.5421 61.7617C45.4998 61.7335 45.4433 61.6911 45.401 61.6629C45.3304 61.6206 45.2739 61.5783 45.2174 61.536ZM41.1377 98.9494C40.9542 98.8648 40.7848 98.766 40.6154 98.6532C40.0507 98.2582 39.5143 97.8349 39.006 97.3835C38.7519 97.1578 38.4978 96.932 38.2579 96.6922C38.0461 96.4947 37.8344 96.2972 37.6367 96.0856C37.5802 96.0009 37.5238 95.9163 37.4673 95.8316C37.4673 95.8175 37.4814 95.8034 37.4814 95.7893C37.6226 95.6059 37.7779 95.4225 37.9473 95.2532C38.2155 95.0416 38.512 94.8582 38.8084 94.6889C39.359 94.4491 39.9236 94.2516 40.5024 94.0964C40.8271 94.6184 41.1236 95.1545 41.4059 95.6906C41.6459 96.2831 41.8153 96.9179 41.9565 97.5387C42.0129 97.976 42.0553 98.4133 42.0412 98.8507C42.027 98.9353 42.0129 99.0059 41.9988 99.0905C41.9706 99.0905 41.9423 99.0905 41.9141 99.0905C41.66 99.0764 41.3918 99.02 41.1377 98.9494ZM38.6108 89.5961C38.6249 89.6102 38.6249 89.6243 38.6249 89.6384C38.8508 90.0757 39.119 90.499 39.359 90.9363C39.1754 90.9786 38.9919 91.035 38.8084 91.1056C38.1449 91.3313 37.4955 91.6276 36.8744 91.952C36.6203 92.0931 36.3662 92.2483 36.1403 92.4317C35.9145 92.6151 35.6745 92.8126 35.4627 93.0101C35.2651 92.7985 35.0675 92.601 34.8698 92.3894C34.2063 91.6981 33.5146 91.0209 32.8794 90.3015C32.2017 89.5255 31.51 88.7637 30.8324 88.0019C31.99 88.3123 33.1335 88.6368 34.291 88.8907C35.7309 89.2152 37.1709 89.4268 38.6108 89.5961ZM29.4772 98.5121C29.5901 98.5685 29.7172 98.625 29.8301 98.6955C29.9713 98.8084 30.0983 98.9353 30.2254 99.0764C30.3807 99.2739 30.536 99.4855 30.663 99.7113C30.903 100.247 31.1148 100.783 31.2418 101.348C31.383 101.954 31.5383 102.561 31.6653 103.168C31.75 103.661 31.8347 104.155 31.8347 104.663C31.8347 104.705 31.8206 104.734 31.8065 104.776C31.7924 104.804 31.7641 104.818 31.7359 104.846C31.6794 104.889 31.623 104.917 31.5665 104.959C31.5241 104.973 31.4959 104.988 31.4536 105.002C31.4112 105.016 31.383 105.03 31.3406 105.03C31.1712 105.044 31.0159 105.058 30.8465 105.058C30.663 105.03 30.4936 104.988 30.3101 104.931C29.9148 104.776 29.5337 104.592 29.1666 104.381C28.7714 104.099 28.4043 103.802 28.0796 103.45C27.6844 102.956 27.3032 102.462 26.9221 101.954C26.555 101.461 26.2021 100.967 25.9198 100.417C25.8351 100.247 25.7645 100.064 25.6939 99.8805C25.7927 99.7677 25.9057 99.6407 26.0045 99.542C26.2021 99.4009 26.3997 99.288 26.6115 99.1752C27.2468 98.893 27.9102 98.6673 28.602 98.5121C28.7996 98.4839 29.0114 98.4698 29.209 98.4698C29.2937 98.4698 29.3784 98.4839 29.4772 98.5121ZM30.056 81.7099C29.5196 82.1472 28.9408 82.5423 28.3196 82.8667C27.9102 83.036 27.4867 83.1489 27.0632 83.2476C26.188 83.3746 25.3128 83.3887 24.4234 83.3323C24.0422 83.29 23.647 83.2476 23.2658 83.1771C22.8564 83.1066 22.447 83.0078 22.0377 82.8949C22.3765 82.6974 22.7153 82.4999 23.0541 82.3024C23.7034 81.9215 24.3528 81.5265 25.0163 81.1597C25.6657 80.807 26.3292 80.4543 26.9927 80.1298C27.9949 79.6643 29.0114 79.2411 30.0419 78.8037C30.9595 78.4228 31.8629 78.0419 32.7947 77.6892C32.7805 77.7315 32.7664 77.788 32.7523 77.8303C32.4841 78.5216 32.1594 79.1705 31.7641 79.7913C31.2418 80.4966 30.6771 81.1174 30.056 81.7099ZM20.5695 71.5101C20.7389 71.1151 20.9365 70.7342 21.1765 70.3674C21.3883 70.0993 21.6142 69.8454 21.8541 69.6055C22.2635 69.2952 22.6729 69.0271 23.1246 68.7732C23.5764 68.5757 24.014 68.4346 24.494 68.3217C24.8045 68.2794 25.1292 68.2653 25.4398 68.2653C25.6657 68.2935 25.8915 68.35 26.1174 68.4064C26.428 68.5334 26.7244 68.6885 27.0068 68.8578C27.3879 69.14 27.7408 69.4645 28.0796 69.7889C28.4467 70.1416 28.8137 70.5084 29.1525 70.8893C29.3784 71.1574 29.6043 71.4536 29.8301 71.7358C30.0701 72.1449 30.3101 72.554 30.5783 72.9491C30.9312 73.4992 31.3265 74.0353 31.7641 74.5291C31.1571 74.7548 30.5642 74.9947 29.9713 75.2345C27.755 76.1515 25.5527 77.0967 23.4493 78.2535C23.4211 78.2112 23.3787 78.183 23.3505 78.1407C23.3787 78.1689 23.407 78.2112 23.4352 78.2394C22.9552 77.6751 22.5035 77.0826 22.0941 76.4619C21.6989 75.8693 21.2895 75.2909 20.9507 74.6561C20.753 74.1764 20.5836 73.6826 20.4707 73.1748C20.4283 72.8503 20.4142 72.5399 20.4283 72.2155C20.4566 71.9756 20.513 71.7358 20.5695 71.5101ZM13.1441 76.3631C13.2147 76.1938 13.2994 76.0386 13.3841 75.8834C13.5252 75.7141 13.6664 75.5449 13.8217 75.3897C14.1181 75.1639 14.4287 74.9664 14.7534 74.783C14.9934 74.6843 15.2334 74.6279 15.4733 74.5573C15.7133 74.5291 15.9533 74.5009 16.1933 74.515C16.4615 74.5573 16.7156 74.5996 16.9838 74.6702C17.1674 74.7548 17.3368 74.8395 17.5062 74.9523C17.5767 75.1639 17.6332 75.3897 17.7179 75.5872C17.9014 75.9822 18.0708 76.3772 18.2967 76.7581C18.4661 77.0544 18.6496 77.3365 18.8331 77.6187C19.1719 78.1407 19.5249 78.6485 19.906 79.1564C20.1037 79.4245 20.3295 79.6784 20.5413 79.9323C20.1178 80.1722 19.6943 80.4261 19.2708 80.6659C18.7626 80.9622 18.2544 81.2585 17.7461 81.5406C17.6473 81.597 17.5344 81.6535 17.4356 81.7099C17.0968 81.9074 16.8568 82.2037 16.6592 82.5423C16.5321 82.768 16.4615 83.163 16.4756 83.4169C16.4898 83.6568 16.6027 84.1082 16.7721 84.3057C16.8991 84.4609 17.0121 84.6161 17.1674 84.743C17.5062 85.0111 17.7744 85.0957 18.1697 85.2368C18.7343 85.4343 19.3131 85.5754 19.8919 85.7306C20.4707 85.8858 21.0354 86.0833 21.6142 86.2384C22.2071 86.3936 22.8141 86.4924 23.4211 86.5629C23.8023 86.6052 24.1975 86.6476 24.5928 86.6758C24.6069 86.7604 24.621 86.8451 24.6634 86.9297C25.0445 87.7339 25.4822 88.5098 25.9057 89.2716C26.3292 90.0334 26.7385 90.7952 27.1197 91.5853C27.6844 92.7703 28.2067 93.9553 28.729 95.1545V95.1686C28.2208 95.2109 27.7126 95.2956 27.2185 95.4225C27.035 95.4649 26.8515 95.5213 26.668 95.5777C26.3009 95.6906 25.948 95.8458 25.5951 96.0009C25.2139 96.1702 24.8328 96.3536 24.4657 96.5652C24.1128 96.7769 23.7881 97.0449 23.5058 97.3412C23.0823 96.7345 22.6729 96.1138 22.2776 95.4931C21.9388 94.9429 21.6 94.3927 21.2612 93.8566C20.9224 93.3064 20.5554 92.7844 20.2025 92.2342C19.8213 91.6558 19.4684 91.0492 19.0872 90.4707C18.7343 89.9205 18.3249 89.3986 17.9579 88.8625C17.2238 87.8044 16.4898 86.7322 15.8263 85.6318C15.2051 84.602 14.6405 83.5298 14.0899 82.4435C13.8499 81.8792 13.6382 81.329 13.4688 80.7365C13.2994 80.1722 13.1723 79.6079 13.0453 79.0435C12.9606 78.5075 12.9041 77.9855 12.9182 77.4353C12.9606 77.0685 13.0311 76.7158 13.1441 76.3631ZM80.0295 138.874C79.493 139.297 78.886 139.65 78.2931 139.989C77.5873 140.412 76.8532 140.764 76.1191 141.131C75.018 141.653 73.9028 142.147 72.7734 142.627C71.5594 143.149 70.3595 143.713 69.1313 144.221C67.8467 144.757 66.5479 145.265 65.2351 145.716C63.9645 146.154 62.6799 146.535 61.3953 146.93C60.3789 147.24 59.3484 147.494 58.3037 147.691C56.0027 148.086 53.6593 148.312 51.33 148.143C51.0618 148.115 50.7936 148.086 50.5112 148.044C50.2995 147.875 50.1018 147.705 49.9183 147.508C49.6078 147.141 49.3254 146.746 49.0713 146.337C48.7466 145.815 48.4361 145.293 48.1114 144.771C47.4761 143.755 46.8268 142.754 46.1774 141.752C45.5139 140.722 44.8504 139.692 44.0881 138.747C43.6364 138.197 43.1705 137.689 42.6058 137.252C42.1259 136.899 41.66 136.546 41.18 136.194C40.2907 135.531 39.4296 134.867 38.5684 134.162C37.6932 133.457 36.8179 132.765 35.9427 132.046C35.0816 131.341 34.2487 130.579 33.4581 129.803C32.71 129.069 32.0182 128.265 31.3265 127.461C30.5783 126.6 29.8584 125.726 29.1666 124.809C28.4467 123.849 27.7267 122.876 27.0209 121.903C26.315 120.929 25.6657 119.885 25.0728 118.855C24.4516 117.769 23.8446 116.683 23.2799 115.568C22.1788 113.24 21.1342 110.87 20.2307 108.444C19.2849 105.905 18.4379 103.309 17.7038 100.685C17.2803 99.1752 16.9133 97.6515 16.6168 96.0997C16.6168 96.0574 16.6027 96.0292 16.6027 96.0009C16.6027 95.9304 16.5886 95.8458 16.5745 95.7752C16.5603 95.6906 16.5462 95.5918 16.518 95.5072C16.3204 94.3503 16.1651 93.1935 16.0804 92.0226C16.7015 92.9396 17.2803 93.8707 17.8873 94.7877C18.452 95.6341 18.9884 96.5088 19.5249 97.3835C19.539 97.4117 19.5531 97.4258 19.5672 97.454C19.6519 97.5669 19.7366 97.6797 19.8072 97.7926C19.8919 97.9055 19.9625 98.0183 20.0472 98.1312C20.1178 98.2299 20.1884 98.3428 20.2589 98.4416C20.4142 98.6673 20.5836 98.893 20.7389 99.1187C20.8942 99.3303 21.0495 99.5278 21.2048 99.7395C21.2189 99.7677 21.2471 99.7959 21.2612 99.8241C21.3036 99.8805 21.3459 99.9229 21.3883 99.9793C21.4447 100.05 21.5012 100.12 21.5718 100.191C21.6283 100.247 21.6706 100.304 21.713 100.36C21.8118 100.473 21.9247 100.586 22.0235 100.699C22.0518 100.741 22.08 100.769 22.1224 100.812C22.1365 100.84 22.1647 100.854 22.1788 100.882C22.2353 100.939 22.2776 101.009 22.3341 101.08C22.3765 101.136 22.4329 101.207 22.4753 101.263C22.5035 101.305 22.5317 101.348 22.56 101.39C22.5882 101.432 22.6164 101.475 22.6447 101.517C22.6588 101.531 22.6588 101.545 22.6588 101.559C22.6588 101.573 22.6588 101.588 22.6729 101.602C22.6729 101.616 22.6729 101.616 22.6729 101.63C22.7153 101.658 22.7576 101.686 22.8 101.7C23.1105 102.349 23.4917 102.97 23.9152 103.563C24.254 104.028 24.621 104.494 24.9739 104.945C25.3833 105.481 25.821 106.003 26.3433 106.441C26.908 106.906 27.515 107.343 28.1785 107.654C28.8137 107.95 29.4772 108.232 30.1689 108.331C30.536 108.387 30.9171 108.402 31.2983 108.373C31.4253 108.359 31.5524 108.345 31.6794 108.317C31.9194 108.275 32.1453 108.232 32.3853 108.176C32.71 108.091 33.0064 107.908 33.3029 107.767C33.557 107.64 33.8675 107.358 34.0511 107.174C34.3475 106.878 34.6157 106.511 34.7851 106.116C35.0251 105.509 35.0957 104.889 35.0816 104.24C35.0675 103.958 35.0251 103.661 34.9828 103.379C34.9122 102.942 34.8416 102.49 34.7428 102.053C34.6157 101.446 34.4604 100.84 34.3193 100.233C34.2063 99.7536 34.0228 99.3021 33.8252 98.8507C33.8252 98.8366 33.8252 98.8084 33.8393 98.7943C33.8111 98.7237 33.7828 98.6532 33.7546 98.5967C33.7122 98.498 33.6699 98.3992 33.6275 98.3005C33.5711 98.1735 33.5146 98.0466 33.4723 97.9196C33.3734 97.6656 33.2605 97.4117 33.1617 97.1578C33.1193 97.0449 33.077 96.9462 33.0346 96.8333C33.0346 96.8192 33.0205 96.8192 33.0205 96.8051C33.0064 96.7769 32.9923 96.7345 32.9782 96.7063C32.8935 96.537 32.7947 96.3677 32.71 96.1984C32.3994 95.5072 32.1029 94.8018 31.8065 94.1105C32.1735 94.4773 32.5406 94.8582 32.8935 95.225C33.1476 95.4931 33.4017 95.7611 33.6417 96.015C33.684 96.1843 33.7405 96.3536 33.8393 96.5229C34.0369 96.8474 34.2346 97.1719 34.4463 97.4822C34.6863 97.849 34.9545 98.1594 35.2369 98.498C35.4345 98.7237 35.6604 98.9212 35.858 99.1187C36.0698 99.3162 36.2815 99.5279 36.4933 99.7254C36.9732 100.149 37.4673 100.558 37.9896 100.939C38.3143 101.178 38.639 101.404 38.9637 101.616C39.4154 101.912 39.9095 102.124 40.4318 102.265C40.7142 102.335 40.9965 102.378 41.2789 102.42C42.0976 102.519 42.9587 102.519 43.6787 102.053C43.9328 101.884 44.1446 101.686 44.3704 101.489C44.5822 101.291 44.7234 101.009 44.8786 100.769C44.9775 100.6 45.0763 100.29 45.1186 100.134C45.161 100.008 45.1892 99.8805 45.2174 99.7536C45.3163 99.2739 45.3304 98.7378 45.3021 98.2582C45.2598 97.5105 45.1186 96.7769 44.9351 96.0433C44.8645 95.7611 44.7798 95.4649 44.681 95.1968C44.5398 94.7595 44.3422 94.3644 44.1304 93.9553C43.7775 93.2499 43.3681 92.5728 42.9446 91.9097C42.9446 91.3172 42.8035 90.7106 42.5635 90.1745C42.5352 90.0898 42.4788 90.0193 42.4505 89.9488C43.2552 89.977 44.0599 90.0052 44.8645 90.0334C45.4715 90.0475 46.0644 90.0757 46.6715 90.0898C46.8832 90.9645 47.095 91.8533 47.3632 92.7139C47.5467 93.3205 47.7443 93.9271 47.9843 94.5196C48.2808 95.2532 48.6055 95.9586 48.9584 96.664C49.5654 97.8773 50.2289 99.0764 50.9771 100.219C51.33 100.769 51.7535 101.277 52.177 101.771C52.6852 102.363 53.2075 102.956 53.7299 103.534C54.6051 104.494 55.5368 105.383 56.4968 106.257C57.1602 106.878 58.2614 106.793 58.8543 106.116C59.4613 105.425 59.3907 104.381 58.7131 103.76C57.4567 102.617 56.2709 101.404 55.1557 100.134C54.8169 99.7254 54.4781 99.3303 54.1675 98.9071C53.8287 98.4698 53.5322 98.0042 53.2499 97.5387C52.6852 96.6217 52.177 95.6483 51.6829 94.6748C51.2171 93.6591 50.8359 92.6151 50.4971 91.5288C50.4124 91.2608 50.3418 90.9927 50.2713 90.7388C50.2571 90.7247 50.2571 90.7106 50.243 90.6824C50.0454 90.2309 49.876 89.7795 49.7066 89.3139C49.6219 89.0741 49.5372 88.8484 49.4384 88.6226C49.3395 88.4392 49.2266 88.27 49.0996 88.1148C49.0996 88.1007 49.0854 88.1007 49.0854 88.0865C48.9019 87.8749 48.7184 87.6633 48.4925 87.494C48.2808 87.3671 48.069 87.2824 47.8432 87.1978C47.5891 87.1131 47.335 87.0708 47.0667 87.0285C46.9538 87.0144 46.8409 86.9862 46.7279 86.9721C46.6432 86.9579 46.5727 86.9438 46.4879 86.9297C46.2621 86.9297 46.0503 86.9438 45.8245 86.9438C45.528 86.9438 45.2457 86.8874 44.9633 86.8592C44.6951 86.8451 44.441 86.8592 44.1728 86.8592C43.8199 86.8451 43.4811 86.831 43.1423 86.7887C43.0999 86.7887 43.0434 86.7887 43.0011 86.7745C42.8035 86.7604 42.6058 86.7604 42.3941 86.7604C42.0976 86.7604 41.8012 86.7463 41.5047 86.7322C41.18 86.7181 40.8553 86.704 40.5307 86.6758C40.2483 86.6617 39.966 86.6194 39.6978 86.577C39.486 86.5629 39.2743 86.5488 39.0766 86.5206C38.879 86.4924 38.6955 86.4501 38.512 86.4219C38.1026 86.3513 37.6791 86.309 37.2697 86.2526C36.8744 86.1961 36.4791 86.1115 36.0839 86.0268C35.8156 85.9704 35.5474 85.8717 35.2933 85.7729C35.1239 85.7165 34.9545 85.6741 34.7851 85.6177C34.3757 85.5331 33.9805 85.4343 33.5852 85.3215C32.8794 85.1381 32.1876 84.9547 31.4818 84.7571C32.0182 84.348 32.5123 83.9107 32.9782 83.4451C33.9522 82.4435 34.771 81.3149 35.3639 80.0593C35.6604 79.4104 35.8721 78.7332 36.098 78.056C36.1827 77.788 36.2674 77.5199 36.3239 77.2378C36.3662 76.9697 36.3803 76.7017 36.4086 76.4336C37.7355 76.0245 39.0766 75.6718 40.4318 75.4038C41.3636 75.2486 42.2811 75.1075 43.227 75.0652C44.1304 75.0229 45.0198 75.0652 45.9233 75.1216C46.7421 75.2204 47.5467 75.3615 48.3514 75.5307C49.2125 75.7141 50.0454 75.9822 50.8783 76.2361C51.6829 76.4901 52.4876 76.7722 53.2923 77.0262C54.0404 77.266 54.7745 77.5058 55.5086 77.7598C57.1038 78.3523 58.6707 78.9871 60.2095 79.6925C61 80.0593 61.7482 80.4966 62.4964 80.9199C63.1458 81.3008 63.781 81.6958 64.4163 82.119C64.9668 82.514 65.5033 82.909 66.0256 83.3323C66.6044 83.7978 67.1267 84.3198 67.6349 84.8418C68.5949 85.8152 69.5548 86.7745 70.4583 87.8044C70.91 88.3405 71.3617 88.8907 71.7711 89.4691C72.1523 90.0052 72.4629 90.5695 72.7593 91.162C72.9852 91.6699 73.2252 92.1778 73.3805 92.7139C73.5781 93.3487 73.7475 93.9694 73.9169 94.6043C74.0581 95.1122 74.1569 95.6341 74.2839 96.142C74.3263 96.3677 74.3686 96.5935 74.411 96.8192C74.4392 96.9462 74.4957 97.0872 74.5239 97.2142C74.5945 97.5246 74.6792 97.8349 74.7357 98.1453C75.1733 100.727 75.5262 103.337 75.6674 105.961C75.8085 108.585 75.8368 111.237 75.6533 113.861C75.5827 114.637 75.4839 115.399 75.3427 116.175C75.2156 116.923 75.0603 117.656 74.8204 118.376C74.3827 119.462 73.8604 120.506 73.3522 121.564C73.0699 122.142 72.7875 122.721 72.5334 123.299C72.2652 123.934 72.0252 124.583 71.7853 125.232C71.7429 125.359 71.6864 125.5 71.6441 125.627C71.5876 125.923 71.6017 126.205 71.6864 126.502C71.8276 126.925 72.1241 127.278 72.5193 127.475C72.9146 127.673 73.3804 127.715 73.7898 127.574C74.171 127.447 74.6227 127.137 74.7639 126.742C75.0039 126.093 75.2439 125.444 75.5121 124.809C75.6533 124.456 75.8227 124.103 75.9921 123.765C76.0768 124.033 76.1615 124.301 76.2462 124.569C76.6414 125.796 77.0367 127.01 77.4461 128.237C78.2507 130.706 79.126 133.16 79.6483 135.714C79.6624 135.813 79.6907 135.911 79.7048 136.024C79.7895 136.518 79.8601 136.998 79.9165 137.492C79.973 137.901 80.0436 138.324 80.0718 138.733C80.1283 138.775 80.0859 138.818 80.0295 138.874Z" fill="#00FFFF"/>
<path d="M47.1094 58.8274C47.18 58.8697 47.2364 58.9261 47.307 58.9685C47.3635 58.9967 47.4199 59.039 47.4623 59.0672C47.3494 58.9967 47.2364 58.912 47.1094 58.8274Z" fill="#00F0FF"/>
<path d="M65.4044 128.872C65.0515 128.688 64.6562 128.66 64.2751 128.716C64.0351 128.745 63.7951 128.787 63.5551 128.815C63.0328 128.886 62.5105 128.928 61.9882 128.97C61.4376 129.013 60.887 129.069 60.3365 129.097C59.8142 129.126 59.2777 129.14 58.7554 129.182C58.0919 129.224 57.4284 129.309 56.7932 129.492C56.6944 129.521 56.5955 129.549 56.5108 129.577C56.4261 129.605 56.3556 129.633 56.2709 129.662C55.7768 129.845 55.3674 130.141 55.0286 130.536C54.8592 130.734 54.7039 130.945 54.5204 131.143C53.8851 131.862 53.1934 132.554 52.4734 133.189C51.4711 133.979 50.3983 134.67 49.3536 135.389C48.6054 135.897 48.3654 136.927 48.8737 137.703C49.3677 138.451 50.4406 138.691 51.1888 138.183C51.8099 137.759 52.4311 137.336 53.0522 136.913C53.7157 136.447 54.351 135.954 54.958 135.432C55.4662 134.994 55.932 134.515 56.3979 134.035C56.6097 133.823 56.8073 133.598 57.0049 133.372C57.1743 133.174 57.3296 132.977 57.499 132.779C57.7249 132.709 57.9508 132.652 58.1766 132.596C59.2354 132.455 60.3083 132.469 61.3811 132.384C61.9458 132.342 62.5105 132.286 63.0752 132.229C63.3293 132.201 63.5834 132.173 63.8375 132.145C63.9363 132.131 64.0492 132.116 64.148 132.102C64.5009 132.229 64.8962 132.243 65.2491 132.131C65.6726 131.989 66.0256 131.693 66.2232 131.298C66.4349 130.875 66.4349 130.466 66.322 130.028C66.2091 129.521 65.842 129.097 65.4044 128.872ZM57.5414 132.723C57.5555 132.723 57.5555 132.723 57.5414 132.723C57.5978 132.695 57.6402 132.667 57.6967 132.652C57.6543 132.681 57.5978 132.709 57.5414 132.723Z" fill="#00F0FF"/>
<path d="M99.2568 118.869C99.271 118.827 99.2992 118.771 99.3133 118.728C99.3133 118.742 99.2992 118.756 99.2992 118.771C99.2851 118.799 99.271 118.841 99.2568 118.869Z" fill="#00F0FF"/>
<path d="M122.055 20.2713C122.013 20.37 121.971 20.4688 121.928 20.5675C121.985 20.4547 122.027 20.3277 122.084 20.2148C122.069 20.229 122.055 20.2431 122.055 20.2713Z" fill="#00F0FF"/>
</g>
<defs>
<filter id="filter0_d" x="1.0835" y="2.71387" width="127.005" height="155.986" filterUnits="userSpaceOnUse" color-interpolation-filters="sRGB">
<feFlood flood-opacity="0" result="BackgroundImageFix"/>
<feColorMatrix in="SourceAlpha" type="matrix" values="0 0 0 0 0 0 0 0 0 0 0 0 0 0 0 0 0 0 127 0"/>
<feOffset/>
<feGaussianBlur stdDeviation="2.5"/>
<feColorMatrix type="matrix" values="0 0 0 0 0.751463 0 0 0 0 0.0657625 0 0 0 0 0.803899 0 0 0 1 0"/>
<feBlend mode="color-dodge" in2="BackgroundImageFix" result="effect1_dropShadow"/>
<feBlend mode="normal" in="SourceGraphic" in2="effect1_dropShadow" result="shape"/>
</filter>
<filter id="filter1_d" x="0.0786133" y="0.542725" width="127.005" height="155.986" filterUnits="userSpaceOnUse" color-interpolation-filters="sRGB">
<feFlood flood-opacity="0" result="BackgroundImageFix"/>
<feColorMatrix in="SourceAlpha" type="matrix" values="0 0 0 0 0 0 0 0 0 0 0 0 0 0 0 0 0 0 127 0"/>
<feOffset/>
<feGaussianBlur stdDeviation="2.5"/>
<feColorMatrix type="matrix" values="0 0 0 0 0 0 0 0 0 0.376471 0 0 0 0 1 0 0 0 1 0"/>
<feBlend mode="color-dodge" in2="BackgroundImageFix" result="effect1_dropShadow"/>
<feBlend mode="normal" in="SourceGraphic" in2="effect1_dropShadow" result="shape"/>
</filter>
</defs>
</svg>
