<svg width="84" height="84" viewBox="0 0 84 84" fill="none" xmlns="http://www.w3.org/2000/svg">
<path d="M78.3657 21.0037C66.7698 0.918966 41.0863 -5.96299 21.0032 5.63505C0.918434 17.2294 -5.96379 42.9118 5.63425 62.9957C17.2286 83.0805 42.9112 89.9635 62.9946 78.3665C83.0797 66.7682 89.9651 41.0872 78.3657 21.0037ZM58.7963 71.0909C42.7309 80.3695 22.183 74.8636 12.907 58.795C3.62885 42.7296 9.13662 22.1819 25.2026 12.9078C41.269 3.62965 61.816 9.13501 71.0925 25.2031C80.3692 41.2709 74.8631 61.8143 58.7963 71.0909ZM57.117 40.2933L35.1282 27.469C33.1244 26.2991 31.5081 27.2344 31.5194 29.5522L31.632 55.0073C31.6421 57.3245 33.2782 58.2679 35.2879 57.1071L57.1084 44.509C59.116 43.3504 59.1202 41.4632 57.117 40.2933Z" fill="white"/>
</svg>
