<svg width="48" height="48" viewBox="0 0 48 48" fill="none" xmlns="http://www.w3.org/2000/svg">
<path d="M37.5097 24.4898L6.49027 24.4898C6.21964 24.4898 6 24.2702 6 23.9995C6 23.7289 6.21964 23.5093 6.49027 23.5093L37.5097 23.5093C37.7804 23.5093 38 23.7289 38 23.9995C38 24.2702 37.7804 24.4898 37.5097 24.4898Z" fill="#EA40F7"/>
<path d="M25.2166 36.782C25.0911 36.782 24.9656 36.7339 24.8695 36.6388C24.6783 36.4476 24.6783 36.1368 24.8695 35.9456L36.8164 23.9986L24.8695 12.0556C24.6783 11.8644 24.6783 11.5536 24.8695 11.3624C25.0607 11.1712 25.3715 11.1712 25.5627 11.3624L37.8558 23.6515C37.948 23.7437 37.9989 23.8682 37.9989 23.9986C37.9989 24.1291 37.947 24.2536 37.8558 24.3458L25.5627 36.6378C25.4676 36.7339 25.3421 36.782 25.2166 36.782Z" fill="#EA40F7"/>
</svg>
