<svg width="195" height="135" viewBox="0 0 195 135" fill="none" xmlns="http://www.w3.org/2000/svg">
<path d="M186.18 0.8396H8.75692C6.43531 0.842421 4.20959 1.76593 2.56796 3.40756C0.926329 5.04919 0.00282116 7.27491 0 9.59652L0 125.34C0.00282116 127.662 0.926329 129.888 2.56796 131.529C4.20959 133.171 6.43531 134.094 8.75692 134.097H186.18C188.501 134.094 190.727 133.171 192.369 131.529C194.01 129.888 194.934 127.662 194.937 125.34V9.59652C194.934 7.27491 194.01 5.04919 192.369 3.40756C190.727 1.76593 188.501 0.842421 186.18 0.8396ZM37.2969 128.767L50.0744 101.095H144.862L157.64 128.767H37.2969ZM189.606 125.34C189.605 126.249 189.244 127.119 188.601 127.762C187.959 128.404 187.088 128.766 186.18 128.767H163.518L148.99 97.318C148.775 96.8558 148.434 96.4643 148.005 96.1892C147.576 95.9141 147.078 95.7668 146.568 95.7646H48.3687C47.8592 95.7668 47.3609 95.9141 46.932 96.1892C46.5032 96.4643 46.1616 96.8558 45.9472 97.318L31.4183 128.767H8.75692C7.8485 128.766 6.97762 128.404 6.33527 127.762C5.69292 127.119 5.33151 126.249 5.3303 125.34V9.59652C5.33151 8.6881 5.69292 7.81722 6.33527 7.17487C6.97762 6.53252 7.8485 6.17111 8.75692 6.1699H186.18C187.088 6.17111 187.959 6.53252 188.601 7.17487C189.244 7.81722 189.605 8.6881 189.606 9.59652V125.34Z" fill="#00FFFF"/>
</svg>
